<svg width="217" height="70" viewBox="0 0 217 70" fill="none" xmlns="http://www.w3.org/2000/svg">
<g clip-path="url(#clip0_243_190)">
<path d="M92.2156 55.241C91.2639 60.8115 88.7129 65.9009 84.8216 69.9999L47.2715 32.3988C48.5292 31.0475 53.9897 25.8153 64.4529 23.9829C66.2511 23.669 67.9462 23.5337 69.523 23.5337C73.6489 23.5337 76.9996 24.4452 79.4117 25.4394L84.3016 30.3352C86.7044 32.7371 88.6322 35.5036 90.0325 38.5557C92.4315 43.7748 93.188 49.5445 92.2175 55.2391L92.2156 55.241Z" fill="white"/>
<path d="M63.2797 9.28993C63.2515 9.28053 63.229 9.27114 63.2065 9.26174H63.2027C61.1642 8.58704 59.0393 8.24874 56.9143 8.24874C51.8217 8.24874 46.7347 10.192 42.8471 14.0786L33.1799 23.7613L32.0668 24.8758L8.84104 48.1333C4.02995 52.9502 3.63763 60.5843 4.15009 65.2245C3.42552 64.0443 2.79105 62.8095 2.25606 61.5371C0.0673296 56.3838 -0.540861 50.7438 0.484052 45.2202C1.53337 39.567 4.24019 34.4212 8.32107 30.3373L33.2006 5.42777C35.8023 2.82293 39.0328 1.092 42.558 0.38535C42.6913 0.3534 42.8265 0.325209 42.9598 0.302657C43.4872 0.204928 44.0185 0.13539 44.5534 0.0846466C44.835 0.0564556 45.126 0.0376617 45.4132 0.0245059C45.7041 0.00571192 45.9951 0.00195312 46.286 0.00195312C46.5958 0.00195312 46.8998 0.0113501 47.2096 0.0245059C47.4968 0.0376617 47.7821 0.0564556 48.0693 0.0846466H48.0731C48.3415 0.112838 48.6099 0.141028 48.8727 0.176737C52.856 0.714244 56.5295 2.53162 59.4184 5.42777L63.2778 9.29181L63.2797 9.28993Z" fill="white"/>
<path d="M77.1335 23.1786C74.9992 22.5772 72.4482 22.1468 69.5217 22.1468C67.7798 22.1468 65.9909 22.3047 64.2113 22.6185C57.7465 23.748 53.1438 26.1631 50.4219 27.9898C48.2877 29.4238 46.9324 30.7337 46.3054 31.3953C46.1383 31.5757 46.0182 31.7092 45.9581 31.7787L45.3443 32.3933L7.79983 70C6.91758 68.9099 2.35616 58.6127 9.81962 49.1161L33.5672 25.3361L34.1041 24.7949L34.6541 24.2498L43.8276 15.0615C47.3266 11.5639 51.9743 9.6394 56.9149 9.6394C58.4899 9.6394 60.0535 9.84238 61.5683 10.2314C63.0794 10.6242 64.5436 11.2068 65.912 11.9717L77.1373 23.1823L77.1335 23.1786Z" fill="white"/>
<path d="M105.299 15.7043L103.906 20.2355H101.688L106.388 5.79235C106.497 5.42211 106.801 5.2041 107.193 5.2041H109.412C109.782 5.2041 110.108 5.42211 110.195 5.79235L114.918 20.2355H112.676L111.283 15.7043H105.299ZM108.954 8.10213C108.845 7.70934 108.693 7.27332 108.584 6.8824H107.997L107.647 8.10213L105.885 13.8099H110.715L108.952 8.10213H108.954Z" fill="white"/>
<path d="M125.054 19.9104C123.967 20.3032 122.618 20.4986 121.334 20.4986C117.636 20.4986 116.264 19.0177 116.264 14.9225C116.264 10.8272 117.657 9.32373 121.356 9.32373C122.336 9.32373 123.793 9.45341 124.859 9.86875L124.598 11.22C123.618 11.1543 122.466 11.111 121.704 11.111C119.31 11.111 118.482 11.9605 118.482 14.9243C118.482 17.8881 119.31 18.7376 121.704 18.7376C122.357 18.7376 123.727 18.6944 124.837 18.4971L125.054 19.9122V19.9104Z" fill="white"/>
<path d="M137.02 14.9431C137.02 18.995 135.65 20.5192 131.95 20.5192C128.25 20.5192 126.859 18.9932 126.859 14.9431C126.859 10.893 128.252 9.32178 131.95 9.32178C135.648 9.32178 137.02 10.8685 137.02 14.9431ZM129.078 14.9431C129.078 17.8843 129.752 18.7545 131.95 18.7545C134.148 18.7545 134.822 17.8843 134.822 14.9431C134.822 12.0018 134.126 11.1091 131.95 11.1091C129.775 11.1091 129.078 11.9586 129.078 14.9431Z" fill="white"/>
<path d="M149.051 23.3722L148.856 20.2355H139.848V9.60376H141.914V18.5365H146.853V9.60376H148.942V18.5365H150.444V23.3722H149.051Z" fill="white"/>
<path d="M154.514 5.07446C154.927 5.07446 155.124 5.31503 155.124 5.68527V6.905C155.124 7.31846 154.929 7.53647 154.514 7.53647H153.514C153.101 7.53647 152.883 7.31846 152.883 6.905V5.68527C152.883 5.31503 153.101 5.07446 153.514 5.07446H154.514ZM152.967 20.2356V9.60381H155.057V20.2356H152.967Z" fill="white"/>
<path d="M158.364 9.82358C159.843 9.56234 162.041 9.32178 163.52 9.32178C165.979 9.32178 167.286 10.1487 167.286 12.8287V20.2354H165.609L165.391 18.5571C164.586 19.3859 163.064 20.4309 161.149 20.4309C159.234 20.4309 157.887 19.3634 157.887 17.4239V16.3131C157.887 14.6142 158.996 13.6557 160.911 13.6557H165.176V12.8269C165.153 11.5207 164.697 11.1053 163.066 11.1053C162.022 11.1053 160.194 11.235 158.561 11.3666L158.365 9.81982L158.364 9.82358ZM160.017 17.1645C160.017 18.2094 160.496 18.6455 161.585 18.6455C162.542 18.6455 163.955 18.232 165.176 17.1645V15.2475H161.303C160.323 15.2907 160.019 15.7925 160.019 16.5988V17.1645H160.017Z" fill="white"/>
<path d="M179.752 23.3722L179.557 20.2355H170.549V9.60376H172.616V18.5365H177.554V9.60376H179.644V18.5365H181.145V23.3722H179.752Z" fill="white"/>
<path d="M185.213 5.07446C185.626 5.07446 185.823 5.31503 185.823 5.68527V6.905C185.823 7.31846 185.628 7.53647 185.213 7.53647H184.213C183.8 7.53647 183.582 7.31846 183.582 6.905V5.68527C183.582 5.31503 183.8 5.07446 184.213 5.07446H185.213ZM183.668 20.2356V9.60381H185.758V20.2356H183.668Z" fill="white"/>
<path d="M191.304 15.5953C189.564 15.3341 188.933 14.3549 188.933 12.6541C188.933 10.5848 189.848 9.47412 192.981 9.47412C195.417 9.47412 196.397 9.49667 197.745 9.62635V20.2355H195.678V16.3584H192.937C192.023 16.3584 191.436 16.7286 191.261 17.3826L190.478 20.2374H188.303L189.26 17.0349C189.521 16.099 190.544 15.772 191.306 15.6836V15.5953H191.304ZM195.678 11.1731H193.024C191.304 11.1731 190.98 11.5866 190.98 12.9604C190.98 14.3342 191.327 14.7891 193.069 14.7891H195.68V11.1731H195.678Z" fill="white"/>
<path d="M117.635 26.9883C118.2 26.9883 118.506 27.3153 118.527 27.881L119.137 42.0197H116.962L116.44 28.7963H116.004L112.958 39.4938C112.826 39.9937 112.522 40.2343 112.021 40.2343H110.129C109.628 40.2343 109.301 39.9937 109.171 39.4938L106.102 28.7963H105.689L105.19 42.0197H103.035L103.602 27.881C103.625 27.3153 103.929 26.9883 104.494 26.9883H106.91C107.409 26.9883 107.672 27.2495 107.824 27.7288L110.369 36.53C110.564 37.2272 110.716 37.8813 110.868 38.556H111.261C111.413 37.8587 111.565 37.2272 111.783 36.5093L114.305 27.7306C114.457 27.2514 114.741 26.9902 115.263 26.9902H117.634L117.635 26.9883Z" fill="white"/>
<path d="M127.795 42.5195C127.469 43.4348 126.86 44.8519 125.794 45.6788C124.662 46.5283 123.249 46.6147 121.638 46.3761L121.833 44.8951C122.748 44.9609 123.682 44.9158 124.379 44.4591C124.944 44.0663 125.468 43.2826 125.837 42.4105L125.989 42.0177H125.531C125.184 42.0177 124.901 41.8223 124.792 41.4727L121.049 31.386H123.29L125.922 39.1197C126.074 39.5332 126.226 39.9692 126.314 40.4259H126.618C126.77 39.9673 126.922 39.4899 127.054 39.1197L129.665 31.386H131.929L127.795 42.5177V42.5195Z" fill="white"/>
<path d="M142.111 41.6926C141.024 42.0854 139.674 42.2808 138.39 42.2808C134.692 42.2808 133.32 40.7999 133.32 36.7047C133.32 32.6095 134.713 31.106 138.413 31.106C139.393 31.106 140.849 31.2356 141.916 31.651L141.655 33.0023C140.675 32.9365 139.522 32.8933 138.76 32.8933C136.367 32.8933 135.539 33.7428 135.539 36.7066C135.539 39.6704 136.367 40.5199 138.76 40.5199C139.413 40.5199 140.784 40.4766 141.893 40.2793L142.111 41.6945V41.6926Z" fill="white"/>
<path d="M150.075 42.5195C149.748 43.4348 149.14 44.8519 148.074 45.6788C146.942 46.5283 145.528 46.6147 143.918 46.3761L144.113 44.8951C145.027 44.9609 145.962 44.9158 146.658 44.4591C147.223 44.0663 147.747 43.2826 148.117 42.4105L148.269 42.0177H147.811C147.463 42.0177 147.18 41.8223 147.071 41.4727L143.328 31.386H145.569L148.201 39.1197C148.353 39.5332 148.505 39.9692 148.593 40.4259H148.898C149.05 39.9673 149.202 39.4899 149.333 39.1197L151.944 31.386H154.208L150.075 42.5177V42.5195Z" fill="white"/>
<path d="M164.521 42.0197H162.411V33.023H160.278C159.409 33.023 159.103 33.35 158.974 34.3311C158.734 36.2048 158.495 38.2741 157.994 39.7118C157.472 41.3675 156.318 42.1738 154.491 42.1287L154.273 40.518C155.449 40.2568 155.818 39.8866 156.122 39.1235C156.601 37.838 156.841 35.5076 156.993 33.959C157.189 32.26 158.037 31.3879 159.886 31.3879H164.521V42.0197Z" fill="white"/>
<path d="M172.222 35.3967C175.55 35.3967 176.573 36.2255 176.573 38.7946C176.573 41.3638 175.398 42.1494 172.57 42.1494C170.416 42.1494 169.328 42.1268 167.914 42.0197H167.871V31.3879H169.895V35.3967H172.222ZM172.222 40.4955C173.876 40.4955 174.441 40.1685 174.441 38.7101C174.441 37.3813 173.962 36.9453 172.222 36.9453H169.895V40.4748L172.222 40.4974V40.4955Z" fill="white"/>
<path d="M191.197 31.3879C191.699 31.3879 191.98 31.6717 191.98 32.1716L192.416 42.0178H190.458L190.066 32.976H189.718L187.237 40.144C187.107 40.5801 186.889 40.8188 186.431 40.8188H184.843C184.408 40.8188 184.169 40.5782 184.016 40.144L181.557 32.976H181.207L180.838 42.0178H178.9L179.313 32.1716C179.313 31.6717 179.597 31.3879 180.119 31.3879H182.251C182.687 31.3879 182.925 31.6285 183.056 32.0626L185.057 37.9226C185.232 38.4225 185.361 38.9243 185.47 39.4468H185.797C185.949 38.9018 186.058 38.4018 186.21 37.9226L188.211 32.0626C188.363 31.6266 188.603 31.3879 189.039 31.3879H191.192H191.197Z" fill="white"/>
<path d="M195.416 31.6059C196.895 31.3446 199.093 31.106 200.573 31.106C203.032 31.106 204.336 31.9348 204.336 34.6129V42.0196H202.66L202.442 40.3413C201.637 41.1701 200.113 42.2151 198.2 42.2151C196.287 42.2151 194.936 41.1476 194.936 39.208V38.0973C194.936 36.3983 196.045 35.4398 197.96 35.4398H202.224V34.611C202.202 33.3049 201.746 32.8895 200.113 32.8895C199.069 32.8895 197.241 33.0192 195.609 33.1507L195.414 31.604L195.416 31.6059ZM197.07 38.9468C197.07 39.9917 197.549 40.4278 198.637 40.4278C199.595 40.4278 201.008 40.0143 202.228 38.9468V37.0298H198.356C197.376 37.073 197.072 37.5748 197.072 38.3811V38.9468H197.07Z" fill="white"/>
<path d="M217 42.0197H214.911V37.184H209.666V42.0197H207.6V31.3879H209.666V35.5715H214.911V31.3879H217V42.0197Z" fill="white"/>
<path d="M109.649 60.0787C108.887 62.1704 108.039 63.8036 106.169 63.9559C105.386 64.0216 104.08 63.8469 103.34 63.6288L103.581 62.0389C106.473 62.2343 106.605 62.1479 107.431 60.0787L107.691 59.4472H106.886C106.015 59.4472 105.582 59.1202 105.298 58.3571L101.904 48.7722H104.123L107.038 57.2915C107.126 57.487 107.279 57.6185 107.496 57.6185H108.324L111.414 48.7741H113.633L109.651 60.0805L109.649 60.0787Z" fill="white"/>
<path d="M119.964 58.2913C122.357 58.5526 122.879 59.9471 124.251 63.8036H122.053C120.769 60.3606 120.311 59.1202 118.31 59.0976H116.851C116.917 59.4246 116.96 59.7723 116.96 60.0787V63.8036H114.871V53.1719H116.96V56.2447C116.96 56.6582 116.917 57.0735 116.851 57.4644H118.179C120.18 57.4644 120.767 56.0267 121.77 53.1719H123.945C122.704 56.5059 122.205 57.9643 119.964 58.2481V58.2913Z" fill="white"/>
<path d="M128.513 54.8052C129.623 53.6512 131.385 52.8882 132.91 52.8882C135.498 52.8882 136.544 54.9142 136.544 58.5527C136.544 62.6704 135.194 64.065 132.476 64.065C131.149 64.065 129.822 63.7379 128.647 62.9975C128.712 63.7379 128.735 64.4126 128.712 65.1531V68.1376H126.623V53.172H128.365L128.517 54.8052H128.513ZM128.709 61.6687C129.949 61.9957 130.841 62.2344 131.93 62.2344C133.692 62.2344 134.366 61.5597 134.366 58.5301C134.366 55.6772 133.756 54.7187 132.191 54.7187C131.081 54.7187 130.124 55.2412 128.71 56.2655V61.6687H128.709Z" fill="white"/>
<path d="M139.283 53.3901C140.762 53.1288 142.961 52.8901 144.44 52.8901C146.899 52.8901 148.203 53.7189 148.203 56.3971V63.8038H146.527L146.309 62.1255C145.504 62.9543 143.98 63.9992 142.067 63.9992C140.154 63.9992 138.803 62.9317 138.803 60.9922V59.8815C138.803 58.1825 139.912 57.224 141.827 57.224H146.092V56.3952C146.069 55.089 145.613 54.6737 143.98 54.6737C142.936 54.6737 141.108 54.8034 139.477 54.9349L139.281 53.3882L139.283 53.3901ZM140.937 60.731C140.937 61.7759 141.416 62.2119 142.504 62.2119C143.462 62.2119 144.875 61.7985 146.095 60.731V58.814H142.223C141.243 58.8572 140.939 59.359 140.939 60.1653V60.731H140.937Z" fill="white"/>
<path d="M151.009 48.7065C151.402 48.7065 151.574 48.9246 151.574 49.2948V50.4713C151.574 50.8641 151.4 51.037 151.009 51.037H150.313C149.921 51.037 149.748 50.8622 149.748 50.4713V49.2948C149.748 48.9246 149.923 48.7065 150.313 48.7065H151.009ZM151.554 63.8037V53.172H153.643V63.8037H151.554ZM154.861 48.7065C155.231 48.7065 155.449 48.9246 155.449 49.2948V50.4713C155.449 50.8641 155.231 51.037 154.861 51.037H154.187C153.774 51.037 153.6 50.8622 153.6 50.4713V49.2948C153.6 48.9246 153.774 48.7065 154.187 48.7065H154.861Z" fill="white"/>
<path d="M166.457 63.8036H164.368V58.9679H159.123V63.8036H157.057V53.1719H159.123V57.3554H164.368V53.1719H166.457V63.8036Z" fill="white"/>
<path d="M177.335 63.8036V57.0716C177.335 56.5698 177.378 56.1564 177.401 55.5907H177.358C177.183 56.0492 176.856 56.5491 176.595 56.8987L171.482 63.8036H169.785V53.1719H171.657V59.9245C171.657 60.4038 171.636 60.8398 171.591 61.3623H171.657C171.874 60.9263 172.135 60.447 172.396 60.0993L177.532 53.1719H179.229V63.8036H177.337H177.335Z" fill="white"/>
</g>
<defs>
<clipPath id="clip0_243_190">
<rect width="217" height="70" fill="white"/>
</clipPath>
</defs>
</svg>
