<svg width="30" height="30" viewBox="0 0 30 30" fill="none" xmlns="http://www.w3.org/2000/svg">
<g clip-path="url(#clip0_2_9)">
<path d="M1.30375 26.6685L3.07151 28.4363L19.5365 11.9713L17.7687 10.2036L1.30375 26.6685ZM15.4202 16.0876L17.188 17.8553L19.2461 15.7972L17.4784 14.0294L15.4202 16.0876ZM15.1299 19.9135L16.8977 21.6812L18.9558 19.6231L17.188 17.8553L15.1299 19.9135ZM14.8395 23.7393L16.6073 25.5071L18.6654 23.449L16.8977 21.6812L14.8395 23.7393ZM13.6525 14.3198L11.8847 12.552L13.9428 10.4939L15.7106 12.2617L13.6525 14.3198Z" fill="#DC0033"/>
<path d="M15.1308 19.9136L8.05971 12.8425L10.1178 10.7844L17.1889 17.8554L15.1308 19.9136ZM14.8404 23.7394L4.23383 13.1328L6.29195 11.0747L16.8985 21.6813L14.8404 23.7394Z" fill="#DC0033"/>
</g>
<defs>
<clipPath id="clip0_2_9">
<rect width="30" height="30" fill="white"/>
</clipPath>
</defs>
</svg>
