<svg width="50" height="50" viewBox="0 0 50 50" fill="none" xmlns="http://www.w3.org/2000/svg">
<g clip-path="url(#clip0_243_142)">
<path d="M46.1887 0H3.81126C1.70636 0 0 1.70989 0 3.81915V46.1809C0 48.2901 1.70636 50 3.81126 50H46.1887C48.2936 50 50 48.2901 50 46.1809V3.81915C50 1.70989 48.2936 0 46.1887 0Z" fill="#DC0033"/>
<path d="M20.6418 34.7076C21.5289 34.523 22.2993 34.1809 22.9528 33.6791C23.53 33.2447 24.0151 32.7068 24.4014 32.0677C25.0078 31.1022 25.311 30.0152 25.311 28.7999C25.311 27.5846 25.046 26.6237 24.516 25.7977C23.9837 24.974 23.1976 24.3709 22.1533 23.9905C22.8405 23.6395 23.3593 23.2501 23.7142 22.8225C24.3453 22.0641 24.6619 21.0558 24.6619 19.8068C24.6619 18.5578 24.3475 17.5495 23.7232 16.6786C22.6833 15.2607 20.9181 14.5338 18.4251 14.4978H8.54102V34.9866H17.7559C18.7935 34.9866 19.7592 34.8943 20.6463 34.7076H20.6418ZM12.615 18.0559H17.0641C18.0433 18.0559 18.8496 18.1617 19.4807 18.3755C20.2128 18.6815 20.5789 19.3117 20.5789 20.2659C20.5789 21.1279 20.3004 21.7288 19.748 22.0663C19.1955 22.4039 18.4745 22.5727 17.5852 22.5727H12.615V18.0559ZM12.615 31.4285V25.9665H17.6481C18.5284 25.9755 19.2067 26.0903 19.6918 26.3131C20.5587 26.7114 20.9944 27.4428 20.9944 28.5073C20.9944 29.7676 20.5475 30.6206 19.6514 31.0662C19.1595 31.307 18.4678 31.4263 17.5807 31.4263H12.615V31.4285Z" fill="white"/>
<path d="M28.7714 33.6362C30.3098 34.8808 32.084 35.4997 34.0963 35.4997C36.5354 35.4997 38.4309 34.7638 39.7851 33.2897C40.6566 32.3624 41.1462 31.4487 41.2517 30.5508H37.2159C36.9801 30.9941 36.7105 31.343 36.4029 31.5928C35.8391 32.0564 35.1092 32.2882 34.2086 32.2882C33.3597 32.2882 32.632 32.0991 32.0301 31.7188C31.0375 31.1067 30.5097 30.0422 30.449 28.5208H41.4606C41.4808 27.2132 41.4359 26.2095 41.3303 25.5141C41.1462 24.3258 40.7441 23.2816 40.1243 22.3814C39.4393 21.3619 38.5656 20.6124 37.5101 20.1398C36.4568 19.6672 35.2709 19.4309 33.9549 19.4309C31.7404 19.4309 29.937 20.1308 28.549 21.5307C27.1611 22.9305 26.4648 24.9425 26.4648 27.5666C26.4648 30.3685 27.2329 32.3895 28.7714 33.634V33.6362ZM31.5967 23.5651C32.1559 22.989 32.942 22.7009 33.9571 22.7009C34.8914 22.7009 35.6729 22.9732 36.304 23.5156C36.9351 24.0602 37.2855 24.8592 37.3574 25.9102H30.5456C30.6893 24.9244 31.0397 24.1435 31.5989 23.5651H31.5967Z" fill="white"/>
<path d="M38.1386 15.6748H29.2539V17.743H38.1386V15.6748Z" fill="white"/>
</g>
<defs>
<clipPath id="clip0_243_142">
<rect width="50" height="50" fill="white"/>
</clipPath>
</defs>
</svg>
