<svg width="172" height="80" viewBox="0 0 172 80" fill="none" xmlns="http://www.w3.org/2000/svg">
<g clip-path="url(#clip0_243_229)">
<path d="M33.582 64.126C40.9082 57.8727 41.0813 55.9581 46.6208 53.3354C43.0453 58.1987 41.1353 58.0821 33.6729 64.2339L33.582 64.126Z" fill="white"/>
<path d="M33.0547 63.5865C37.5668 53.6895 36.8249 51.6432 41.2461 46.3181C39.9093 53.001 37.8977 53.7953 33.1974 63.6534L33.0547 63.5865Z" fill="white"/>
<path d="M31.7617 63.6901C27.0334 53.8493 25.0152 53.0809 23.7109 46.2793C27.9699 51.6325 27.321 53.6658 31.9023 63.6254L31.7617 63.6901Z" fill="white"/>
<path d="M32.2657 63.6232C32.1316 49.5689 30.1459 47.5787 32.4085 38.9294C34.5023 47.4859 32.5793 49.5128 32.4712 63.6232H32.2657Z" fill="white"/>
<path d="M31.4088 64.2493C23.9744 58.1751 22.0991 58.2831 18.502 53.3896C23.8684 56.0965 24.1302 57.9291 31.4931 64.1478L31.4088 64.2493Z" fill="white"/>
<path d="M31.2402 11.5159L32.5013 13.7845L33.7623 11.5159L32.5013 9.24512L31.2402 11.5159Z" fill="white"/>
<path d="M32.441 8.10969C30.5245 8.10969 28.9196 6.79082 28.4805 5.0165C29.0667 6.2555 30.3299 7.11245 31.7921 7.11245C33.8145 7.11245 35.4562 5.47627 35.4562 3.45803C35.4562 1.85855 34.4245 0.496504 32.9882 0.00219727C34.9825 0.269857 36.5226 1.97295 36.5226 4.03652C36.5226 6.28572 34.6949 8.10969 32.441 8.10969Z" fill="white"/>
<path d="M65.0036 48.5285C65.0361 42.0183 60.9847 37.1659 56.6608 33.8698C53.1091 31.1609 49.9511 29.8441 46.0447 27.5906C37.8143 22.844 36.7285 20.748 32.5019 15.3171C28.2753 20.748 27.1895 22.844 18.9592 27.5906C15.0527 29.8441 11.8947 31.1609 8.34301 33.8698C4.01911 37.1659 -0.0322519 42.0183 0.000193572 48.5285C0.0218239 53.0205 1.14444 55.3927 3.69682 59.9062C1.99451 54.7063 2.55906 48.0169 5.79928 43.5034C8.847 39.2576 13.4802 36.7903 18.2843 34.6534C22.6731 32.7021 28.4808 29.7621 32.5019 25.8789C36.523 29.7621 42.3307 32.7021 46.7195 34.6534C51.5236 36.7903 56.1568 39.2576 59.2045 43.5034C62.4448 48.0169 63.0093 54.7063 61.307 59.9062C63.8615 55.3927 64.982 53.0205 65.0036 48.5285Z" fill="white"/>
<path d="M19.2417 61.6956L9.58594 65.4061C14.6864 69.5656 17.1544 70.7269 25.1814 72.9308C30.1023 74.282 31.9063 75.7455 31.9063 75.7455V70.5931C31.9063 70.5931 30.9134 67.1696 26.7907 65.6284C21.1949 63.5368 19.2417 61.6956 19.2417 61.6956Z" fill="white"/>
<path d="M45.9927 61.6956L55.6485 65.4061C50.548 69.5656 48.08 70.7269 40.053 72.9308C35.1321 74.282 33.3281 75.7455 33.3281 75.7455V70.5931C33.3281 70.5931 34.321 67.1696 38.4437 65.6284C44.0395 63.5368 45.9927 61.6956 45.9927 61.6956Z" fill="white"/>
<path d="M42.2525 73.7338C37.9265 74.9534 34.4332 76.3283 32.6184 78.3854C30.8036 76.3305 27.3082 74.9534 22.9843 73.7338C18.2429 72.3976 12.8699 70.8823 8.87695 66.9905C12.9759 70.9881 18.0179 72.9394 22.8263 74.295C27.0334 75.48 31.1648 77.6084 32.6206 80.0022C34.0763 77.6084 38.2077 75.48 42.4148 74.295C47.2232 72.9416 52.2652 70.9881 56.3642 66.9905C52.3712 70.8845 46.9982 72.3976 42.2569 73.7338H42.2525Z" fill="white"/>
<path d="M74.7246 23.3317C74.7398 21.9416 74.6943 20.6421 74.6641 20.1802C75.0383 20.2255 75.5163 20.2838 76.0116 20.2838C76.1176 20.2838 76.1609 20.2687 76.2063 20.1651L79.784 11.246C80.2469 10.2142 80.3226 10.0955 80.4567 10.0955C80.5605 10.0955 80.6665 10.2897 80.8611 10.7085C82.2239 13.8017 83.407 16.8042 84.8584 20.1046C84.919 20.2082 84.9774 20.2385 85.0228 20.2385C85.4273 20.2385 86.3704 20.2082 86.8052 20.1629C86.7597 20.491 86.5499 21.7905 86.5499 23.2108L85.741 23.3295C85.5917 22.7316 85.4273 22.1639 85.1569 21.8358C85.0812 21.7322 84.9925 21.6566 84.8282 21.6264C84.5729 21.566 83.9002 21.5509 83.301 21.5509H78.1509C77.4176 21.5509 76.6692 21.566 76.4291 21.6113C76.295 21.6264 76.1739 21.6717 76.07 21.8358C75.8905 22.0905 75.7261 22.5675 75.5466 23.2259L74.7225 23.3295L74.7246 23.3317ZM82.7646 20.286C82.8403 20.2708 82.8403 20.2557 82.8252 20.1823C82.3601 19.0167 81.0147 15.6105 80.355 13.9377C80.2793 13.7434 80.2209 13.6398 80.1755 13.6398C80.13 13.6398 80.0846 13.7434 79.9959 13.9528C79.2475 15.9689 78.365 18.2699 77.7204 20.1975C77.6901 20.2881 77.7356 20.2881 77.7658 20.2881C77.9302 20.3183 82.5851 20.3485 82.7668 20.2881L82.7646 20.286Z" fill="white"/>
<path d="M89.0661 21.5552C88.4518 21.5552 88.0927 21.5854 87.8245 21.6005C88.0949 21.3307 88.7373 20.5407 89.516 19.1959C89.5614 19.0923 89.5614 19.047 89.516 18.9412C89.051 18.0001 87.8397 15.7142 86.9701 14.16C86.1309 12.6965 85.787 12.1893 85.6074 12.008C86.0271 12.0533 86.4748 12.0382 86.73 12.0382C87.2081 12.0382 87.7337 12.008 88.0322 11.9777C88.0322 12.0965 88.2874 12.7246 88.6465 13.5168C89.3646 15.0558 90.3531 16.9834 90.5932 17.4151C91.2811 15.9948 92.0295 14.3521 92.5248 13.1865C92.7195 12.7376 92.899 12.321 92.9596 12.0058C93.1845 12.0209 93.483 12.036 93.7837 12.036C94.1125 12.036 94.5927 12.0058 94.8457 11.9756C94.6662 12.2432 94.2466 13.0074 93.7837 13.9463C93.23 15.0515 91.8975 17.6655 90.8636 19.6384C90.3553 20.64 90.0114 21.3264 89.9054 21.5811C89.6956 21.566 89.4555 21.5509 89.0661 21.5509V21.5552Z" fill="white"/>
<path d="M96.2086 21.5553C95.7587 21.5553 95.2958 21.5855 95.0254 21.6006C95.2806 21.3308 95.8928 20.5839 96.732 19.4054L98.6182 16.6856L96.9116 14.0716C96.254 13.0398 95.7284 12.3836 95.3087 12.0102C95.683 12.0102 96.161 12.0404 96.6412 12.0404C97.1646 12.0404 97.5237 12.0102 97.7486 11.98C98.0039 12.5779 99.0357 14.3242 99.7386 15.3559C100.128 14.8185 100.651 14.0565 100.801 13.8169C101.205 13.1607 101.683 12.3987 101.774 12.0102C101.878 12.0253 102.194 12.0404 102.507 12.0404C103.061 12.0404 103.6 11.9951 103.764 11.98C103.405 12.3534 102.806 13.1003 102.328 13.7586L100.426 16.3575C100.786 16.9554 101.489 18.0606 101.954 18.7923C102.866 20.1673 103.736 21.2423 104.095 21.5855C103.84 21.5553 103.331 21.5553 102.957 21.5553C102.553 21.5553 101.655 21.5553 101.445 21.6006C101.37 21.3912 100.801 20.271 100.651 20.0162C100.113 19.0751 99.8879 18.6715 99.319 17.7303L97.8957 20.0162C97.4912 20.6595 97.1322 21.3912 97.0284 21.5855C96.8488 21.5704 96.5936 21.5553 96.2042 21.5553H96.2086Z" fill="white"/>
<path d="M104.68 16.8648C104.68 14.3393 106.432 11.8159 110.04 11.8159C113.258 11.8159 115.205 13.968 115.205 16.5518C115.205 19.4788 113.273 21.7647 109.89 21.7647C106.237 21.7647 104.682 19.1204 104.682 16.8648H104.68ZM113.152 16.9684C113.152 14.8314 111.939 12.8909 109.724 12.8909C107.987 12.8909 106.715 14.1299 106.715 16.4611C106.73 18.7168 107.944 20.6897 110.174 20.6897C111.415 20.6897 113.152 19.9277 113.152 16.9705V16.9684Z" fill="white"/>
<path d="M117.75 15.6689C117.75 13.8622 117.675 12.5023 117.586 12.008C117.765 12.0231 118.109 12.0382 118.41 12.0382C119.128 12.0382 119.758 11.9929 120.686 11.9929C123.201 11.9929 123.77 13.247 123.77 14.2033C123.77 15.1595 123.128 15.861 122.468 16.174C123.77 16.5626 124.653 17.385 124.653 18.7146C124.653 20.2839 123.35 21.6416 120.88 21.6416C119.922 21.6416 119.024 21.5661 118.769 21.551C118.425 21.551 117.887 21.5812 117.631 21.5963C117.692 21.0286 117.75 19.5198 117.75 17.9073V15.6668V15.6689ZM119.533 15.833C119.533 15.8783 119.548 15.8934 119.593 15.9085C119.848 15.9387 120.701 15.9387 120.85 15.9387C121.133 15.9387 121.328 15.9236 121.495 15.82C121.929 15.5221 122.109 14.9976 122.109 14.581C122.109 13.6701 121.51 13.0269 120.311 13.0269C119.907 13.0269 119.654 13.0571 119.578 13.0873C119.548 13.1024 119.533 13.1175 119.533 13.1629V15.8373V15.833ZM122.092 17.521C121.687 17.1626 121.133 17.0288 120.504 16.9986C120.205 16.9835 119.68 16.9835 119.591 16.9986C119.546 17.0137 119.531 17.0288 119.531 17.059V17.8965C119.531 19.3018 119.576 20.2429 119.606 20.2861C119.695 20.3897 120.115 20.5688 120.939 20.5688C121.851 20.5688 122.734 20.0162 122.734 18.8959C122.734 18.4772 122.63 17.985 122.089 17.521H122.092Z" fill="white"/>
<path d="M127.06 15.6689C127.06 13.8622 127 12.5325 126.881 12.008C127.045 12.0231 127.435 12.0382 127.779 12.0382C128.287 12.0382 128.767 12.008 128.977 11.9778C128.947 12.4397 128.873 13.5751 128.873 15.4595V15.6387C128.873 15.6991 128.888 15.7142 128.918 15.7142H133.71C133.74 15.7142 133.77 15.6991 133.77 15.6387V15.4595C133.77 13.6528 133.694 12.5023 133.636 12.008C133.831 12.0231 134.129 12.0382 134.534 12.0382C134.999 12.0382 135.416 12.0231 135.717 11.9778C135.641 12.4699 135.583 13.8751 135.583 15.6667V17.9073C135.583 19.401 135.643 20.9854 135.717 21.5833C135.552 21.5682 135.133 21.5531 134.804 21.5531C134.369 21.5531 133.712 21.5833 133.636 21.5984C133.697 21.0458 133.77 19.5219 133.77 17.9095V17.059C133.77 17.0137 133.755 16.9986 133.725 16.9986H128.918C128.888 16.9986 128.873 17.0288 128.873 17.059V17.9095C128.873 19.4032 128.949 20.9876 129.007 21.5855C128.858 21.5704 128.542 21.5552 128.183 21.5552C127.614 21.5552 127.121 21.5855 126.926 21.6006C126.987 21.048 127.06 19.5241 127.06 17.9116V15.6711V15.6689Z" fill="white"/>
<path d="M139.082 15.6689C139.082 13.5923 139.006 12.3965 138.902 12.008C139.158 12.0382 139.62 12.0382 140.025 12.0382H143.153C143.557 12.0382 144.156 12.0382 144.409 11.9626C144.364 12.2325 144.29 12.8282 144.29 13.5017C144.066 13.383 143.752 13.2923 143.003 13.2319C142.554 13.2017 141.716 13.1714 140.938 13.1714C140.923 13.1714 140.892 13.1865 140.892 13.2168V15.8761C140.892 15.9063 140.907 15.9516 140.938 15.9516C141.221 15.9516 142.51 15.9516 142.958 15.9365C143.767 15.9063 144.02 15.861 144.187 15.8178C144.096 16.2366 144.053 16.9985 144.053 17.372C143.828 17.2381 143.575 17.1626 143.006 17.1173C142.571 17.087 141.269 17.0719 140.94 17.0719C140.91 17.0719 140.895 17.1021 140.895 17.1324V17.7454C140.895 19.9406 140.925 20.2558 140.985 20.3141C141.031 20.3594 141.15 20.3896 141.284 20.4026C141.643 20.4328 142.017 20.463 142.571 20.463C143.648 20.463 144.366 20.3723 144.831 20.1651C144.697 20.5839 144.548 21.2401 144.502 21.5984C144.442 21.6286 144.262 21.6437 143.739 21.6437C141.972 21.6437 140.94 21.5531 140.161 21.5531C139.577 21.5531 139.142 21.5682 138.935 21.5833C138.995 21.1192 139.084 19.7895 139.084 17.9073V15.6667L139.082 15.6689Z" fill="white"/>
<path d="M78.5583 37.5909C78.1084 37.5909 77.5698 37.6211 77.2864 37.6514C77.5698 37.3233 78.3333 36.3368 79.1726 34.7978C79.2483 34.679 79.2483 34.6186 79.1877 34.4999C78.6794 33.4552 77.1826 30.6016 76.2092 28.8078C75.2964 27.15 74.9374 26.5823 74.6973 26.3579C75.0109 26.3881 75.5949 26.3881 75.8502 26.3881C76.3585 26.3881 76.8971 26.3579 77.2129 26.3276C77.2129 26.4615 77.5417 27.1932 77.9461 28.0761C78.74 29.7036 80.027 32.3327 80.2974 32.8572C81.0761 31.2448 81.9586 29.2266 82.5426 27.748C82.7827 27.1803 82.9622 26.7162 83.0076 26.3579C83.2477 26.373 83.5765 26.3881 83.8902 26.3881C84.2341 26.3881 84.7294 26.3579 84.9825 26.3276C84.803 26.6255 84.3682 27.4933 83.8447 28.5833C83.2153 29.8979 81.6752 33.1098 80.492 35.4691C79.9232 36.5894 79.5641 37.3513 79.4581 37.619C79.2331 37.6039 78.9498 37.5888 78.5604 37.5888L78.5583 37.5909Z" fill="white"/>
<path d="M86.3114 31.7045C86.3114 29.8978 86.2811 28.5682 86.1621 28.0436C86.3114 28.0588 86.9408 28.0739 87.2242 28.0739H93.75C94.2886 28.0739 94.7537 28.0588 94.9765 28.0134C94.9159 28.5056 94.8424 29.9108 94.8424 31.7024V33.943C94.8424 35.4367 94.8878 37.0059 94.9916 37.6168C94.7969 37.6017 94.4984 37.5866 94.0637 37.5866C93.4948 37.5866 93.06 37.6168 92.8956 37.6319C92.9562 37.0793 93.0146 35.5554 93.0146 33.943V29.3129C93.0146 29.2373 92.9843 29.2222 92.9238 29.2222H88.2083C88.1781 29.2222 88.1478 29.2222 88.1478 29.2827C88.1478 29.492 88.1326 30.6879 88.1326 31.1951V33.943C88.1326 35.959 88.2083 37.1095 88.2819 37.6168C88.1326 37.6017 87.713 37.5866 87.3691 37.5866C86.7115 37.5866 86.3806 37.6168 86.1859 37.6319C86.2616 37.0793 86.3049 35.5554 86.3049 33.943V31.7024L86.3114 31.7045Z" fill="white"/>
<path d="M98.3199 31.7045C98.3199 29.8978 98.2593 28.538 98.1858 28.0436C98.3653 28.0739 98.6054 28.0739 98.9342 28.0739C99.4728 28.0739 100.072 28.0134 100.954 28.0134C102.646 28.0134 103.47 28.3415 104.097 28.8941C104.472 29.2071 104.891 29.8655 104.891 30.731C104.891 32.6586 103.26 33.7487 101.268 33.7487C101.223 33.5695 101.089 33.0472 100.998 32.8227C102.105 32.7622 103.109 32.3003 103.109 30.9555C103.109 30.2389 102.854 29.7597 102.421 29.4467C102.077 29.1488 101.612 28.9826 100.864 28.9826C100.639 28.9826 100.31 28.9977 100.206 29.0431C100.161 29.0582 100.145 29.0733 100.145 29.3129V33.9883C100.145 35.4518 100.191 37.021 100.28 37.619C100.055 37.6038 99.6653 37.5887 99.3062 37.5887C98.9471 37.5887 98.3631 37.619 98.1836 37.6341C98.2593 37.0815 98.3177 35.5575 98.3177 33.9451V31.7045H98.3199Z" fill="white"/>
<path d="M107.645 34.9769C107.614 34.9769 107.584 34.992 107.584 35.0223C107.225 35.9332 106.821 37.0383 106.671 37.6211C106.477 37.606 106.282 37.5909 105.862 37.5909C105.369 37.5909 104.95 37.6211 104.785 37.6362C105.144 36.9649 105.668 35.8447 106.388 34.3207L108.947 28.4797C109.187 28.0027 109.26 27.8516 109.366 27.8516C109.442 27.8516 109.531 27.9552 109.771 28.4797C109.966 28.8682 111.328 31.6765 112.54 34.2171C113.199 35.5619 113.902 37.0858 114.307 37.6233C113.917 37.6082 113.543 37.5931 113.379 37.5931C112.871 37.5931 112.256 37.6233 112.016 37.6384C111.791 37.0556 111.253 35.7713 110.909 35.0244C110.909 34.9942 110.894 34.9791 110.848 34.9791H107.645V34.9769ZM110.416 33.8415C110.461 33.8415 110.461 33.8264 110.461 33.7811L109.189 30.839L108.021 33.7811C108.006 33.8264 108.006 33.8415 108.051 33.8415H110.416Z" fill="white"/>
<path d="M116.073 31.7046C116.073 29.8979 115.997 28.538 115.908 28.0437C116.088 28.0588 116.432 28.0739 116.732 28.0739C117.45 28.0739 118.08 28.0286 119.008 28.0286C121.523 28.0286 122.092 29.2827 122.092 30.2389C122.092 31.1951 121.45 31.8967 120.79 32.2097C122.092 32.5982 122.975 33.4206 122.975 34.7503C122.975 36.3195 121.673 37.6773 119.203 37.6773C118.244 37.6773 117.347 37.6017 117.091 37.5888C116.747 37.5888 116.209 37.619 115.954 37.6341C116.014 37.0664 116.073 35.5576 116.073 33.9451V31.7046ZM117.855 31.8686C117.855 31.9139 117.87 31.9291 117.916 31.9442C118.171 31.9744 119.023 31.9744 119.172 31.9744C119.456 31.9744 119.65 31.9593 119.817 31.8557C120.252 31.5578 120.431 31.0333 120.431 30.6167C120.431 29.7058 119.832 29.0625 118.634 29.0625C118.229 29.0625 117.976 29.0927 117.9 29.1229C117.87 29.1381 117.855 29.1532 117.855 29.1985V31.8729V31.8686ZM120.414 33.5566C120.009 33.1983 119.456 33.0644 118.826 33.0342C118.528 33.0191 118.002 33.0191 117.913 33.0342C117.868 33.0493 117.853 33.0645 117.853 33.0947V33.9322C117.853 35.3374 117.898 36.2785 117.928 36.3217C118.017 36.4253 118.437 36.6045 119.261 36.6045C120.174 36.6045 121.056 36.0519 121.056 34.9316C121.056 34.5128 120.952 34.0207 120.412 33.5566H120.414Z" fill="white"/>
<path d="M128.618 31.0333L127.091 34.7978C126.671 35.8727 126.252 37.0685 126.102 37.6211C125.893 37.606 125.698 37.5909 125.278 37.5909C124.785 37.5909 124.366 37.6211 124.201 37.6362C124.56 36.9649 125.114 35.8447 125.832 34.3207L128.467 28.4797C128.707 27.9876 128.78 27.8516 128.886 27.8516C128.947 27.8516 129.051 27.9552 129.291 28.4797C129.47 28.8682 130.818 31.6916 131.971 34.2171C132.585 35.5619 133.318 37.0858 133.723 37.6233C133.333 37.6082 132.959 37.5931 132.795 37.5931C132.287 37.5931 131.672 37.6233 131.432 37.6384C131.253 37.116 130.699 35.7864 130.37 35.0093L128.618 31.0354V31.0333Z" fill="white"/>
<path d="M135.473 31.7045C135.473 29.8978 135.428 28.4624 135.324 28.0436C135.473 28.0739 135.893 28.0739 136.176 28.0739C136.834 28.0739 137.284 28.0436 137.418 28.0134C137.373 28.5056 137.299 29.9108 137.299 31.7024V33.943C137.299 35.4367 137.344 37.2304 137.448 37.6168C137.299 37.6017 136.94 37.5866 136.551 37.5866C136.131 37.5866 135.532 37.6168 135.352 37.6319C135.428 37.1246 135.471 35.5554 135.471 33.943V31.7024L135.473 31.7045Z" fill="white"/>
<path d="M140.818 31.7045C140.818 29.8978 140.758 28.5682 140.639 28.0436C140.803 28.0588 141.192 28.0739 141.536 28.0739C142.045 28.0739 142.525 28.0436 142.735 28.0134C142.704 28.4754 142.631 29.6108 142.631 31.4952V31.6743C142.631 31.7348 142.646 31.7499 142.676 31.7499H147.467C147.498 31.7499 147.528 31.7348 147.528 31.6743V31.4952C147.528 29.6885 147.452 28.538 147.394 28.0436C147.588 28.0588 147.887 28.0739 148.291 28.0739C148.757 28.0739 149.174 28.0588 149.475 28.0134C149.399 28.5056 149.341 29.9108 149.341 31.7024V33.943C149.341 35.4367 149.401 37.021 149.475 37.6168C149.31 37.6017 148.891 37.5866 148.562 37.5866C148.127 37.5866 147.47 37.6168 147.394 37.6319C147.454 37.0793 147.528 35.5554 147.528 33.943V33.0925C147.528 33.0472 147.513 33.032 147.483 33.032H142.676C142.646 33.032 142.631 33.0623 142.631 33.0925V33.943C142.631 35.4367 142.707 37.021 142.765 37.6168C142.616 37.6017 142.3 37.5866 141.941 37.5866C141.372 37.5866 140.879 37.6168 140.684 37.6319C140.745 37.0793 140.818 35.5554 140.818 33.943V31.7024V31.7045Z" fill="white"/>
<path d="M152.84 31.7045C152.84 29.8978 152.779 28.5682 152.66 28.0436C152.825 28.0588 153.214 28.0739 153.558 28.0739C154.066 28.0739 154.546 28.0436 154.756 28.0134C154.726 28.4754 154.652 29.6108 154.652 31.4952V31.6743C154.652 31.7348 154.667 31.7499 154.698 31.7499H159.489C159.519 31.7499 159.549 31.7348 159.549 31.6743V31.4952C159.549 29.6885 159.474 28.538 159.415 28.0436C159.61 28.0588 159.908 28.0739 160.313 28.0739C160.778 28.0739 161.195 28.0588 161.496 28.0134C161.42 28.5056 161.362 29.9108 161.362 31.7024V33.943C161.362 35.4367 161.423 37.021 161.496 37.6168C161.332 37.6017 160.912 37.5866 160.583 37.5866C160.149 37.5866 159.491 37.6168 159.415 37.6319C159.476 37.0793 159.549 35.5554 159.549 33.943V33.0925C159.549 33.0472 159.534 33.032 159.504 33.032H154.698C154.667 33.032 154.652 33.0623 154.652 33.0925V33.943C154.652 35.4367 154.728 37.021 154.786 37.6168C154.637 37.6017 154.321 37.5866 153.962 37.5866C153.393 37.5866 152.9 37.6168 152.706 37.6319C152.766 37.0793 152.84 35.5554 152.84 33.943V31.7024V31.7045Z" fill="white"/>
<path d="M171.389 33.9451C171.389 35.4237 171.465 37.0534 171.554 37.6341C171.344 37.6038 170.909 37.5887 170.58 37.5887C170.252 37.5887 169.786 37.6341 169.458 37.6621C169.549 37.0944 169.622 35.8101 169.622 34.1977V33.8696C169.622 33.8242 169.607 33.8091 169.562 33.8091H168.962C168.679 33.8091 168.469 33.794 168.199 33.794C168.169 33.794 168.123 33.8091 168.095 33.8545C167.766 34.3034 166.538 36.0799 166.029 36.708C165.731 37.0815 165.415 37.3945 165.22 37.4851C164.98 37.6341 164.712 37.7096 163.888 37.6945C163.529 37.6945 163.155 37.6643 162.99 37.6038C163.155 37.5002 163.574 37.1268 164.158 36.4533C164.502 36.0648 164.861 35.6029 165.205 35.169C165.835 34.3466 166.388 33.6451 166.613 33.4357C165.566 32.9133 164.922 32.0024 164.922 30.867C164.922 29.6561 165.67 28.9092 166.358 28.5207C166.912 28.2077 167.675 28.0134 168.874 28.0134C169.533 28.0134 170.282 28.0739 170.52 28.0739C170.909 28.0739 171.223 28.0588 171.554 28.0436C171.404 28.5358 171.389 29.8957 171.389 31.7045V33.9451ZM169.607 29.2114C169.607 29.1661 169.592 29.1359 169.546 29.1208C169.427 29.0754 169.096 29.0452 168.768 29.0452C167.63 29.0452 166.717 29.5978 166.717 30.8368C166.717 31.5988 167.076 32.2852 167.779 32.5852C168.065 32.6888 168.497 32.7342 168.872 32.7342C169.096 32.7342 169.337 32.7342 169.544 32.6888C169.59 32.6737 169.62 32.6586 169.62 32.5852C169.62 31.4649 169.62 29.8525 169.605 29.2093L169.607 29.2114Z" fill="white"/>
<path d="M77.389 44.7098C77.4777 43.8723 77.5686 43.1103 77.6724 42.4088C77.7027 42.2145 77.733 42.1692 77.7914 42.1692C77.8498 42.1692 77.9103 42.275 78.0012 42.4239C78.3148 42.8858 78.9443 44.0514 79.4093 44.8134L82.6582 50.5659L85.3685 45.6963C86.3418 44.127 86.7463 43.3952 87.1638 42.6031C87.3887 42.2447 87.4623 42.1692 87.538 42.1692C87.6137 42.1692 87.6418 42.2296 87.6872 42.6182C87.7759 43.3499 87.8516 44.1572 87.9425 44.9494C88.3167 48.4311 88.7947 52.718 89.0499 53.6591C88.9007 53.644 88.6152 53.6289 88.122 53.6289C87.5985 53.6289 87.0881 53.644 86.835 53.6893C86.835 52.5539 86.5062 48.7743 86.357 46.3546C85.1284 48.7009 83.558 51.4488 82.5089 53.6289C82.4202 53.8383 82.3597 53.8232 82.2688 53.644C81.0857 51.1487 79.5888 48.4894 78.5722 46.3676C78.4078 48.8477 78.1093 52.5669 78.1093 53.657C77.8844 53.6267 77.4799 53.6267 77.3003 53.6267C76.7769 53.6267 76.3875 53.657 76.1777 53.6872C76.4027 52.731 76.9716 48.2045 77.3912 44.7098H77.389Z" fill="white"/>
<path d="M93.7966 53.6267C93.1823 53.6267 92.8232 53.657 92.555 53.6721C92.8254 53.4023 93.4678 52.6122 94.2465 51.2675C94.2919 51.1638 94.2919 51.1185 94.2465 51.0127C93.7814 50.0716 92.5701 47.7857 91.7006 46.2316C90.8613 44.7681 90.5174 44.2587 90.3379 44.0795C90.7575 44.1248 91.2053 44.1097 91.4605 44.1097C91.9385 44.1097 92.4641 44.0795 92.7626 44.0493C92.7626 44.168 93.0179 44.7961 93.3769 45.5883C94.0951 47.1274 95.0836 49.0549 95.3237 49.4867C96.0115 48.0685 96.7599 46.4237 97.2553 45.2581C97.4499 44.8112 97.6295 44.3925 97.69 44.0773C97.915 44.0924 98.2135 44.1076 98.5142 44.1076C98.8429 44.1076 99.3231 44.0773 99.5762 44.0471C99.3967 44.3169 98.977 45.0789 98.5142 46.02C97.9604 47.1252 96.628 49.7392 95.5941 51.7121C95.0857 52.7137 94.7418 53.4001 94.6358 53.6548C94.426 53.6397 94.1859 53.6246 93.7966 53.6246V53.6267Z" fill="white"/>
<path d="M101.896 52.4763C100.609 51.3862 100.25 49.9227 100.25 48.7269C100.25 47.7858 100.52 46.3223 101.792 45.2473C102.781 44.3818 104.083 43.8875 106.014 43.8875C107.782 43.8875 108.874 44.2609 109.413 44.3645C109.324 44.7228 109.188 45.515 109.173 46.128C108.588 45.5603 107.451 45.0228 105.865 45.0228C104.682 45.0228 103.903 45.3812 103.41 45.815C102.586 46.5317 102.288 47.4879 102.288 48.5499C102.288 50.566 103.559 52.554 106.51 52.554C107.602 52.554 108.651 52.3597 109.4 51.8525C109.281 52.2259 109.129 53.0483 109.071 53.4369C108.563 53.6311 107.425 53.8405 106.287 53.8405C104.671 53.8405 103.144 53.5124 101.9 52.4806L101.896 52.4763Z" fill="white"/>
<path d="M114.066 53.6267C113.452 53.6267 113.093 53.657 112.825 53.6721C113.095 53.4023 113.737 52.6122 114.516 51.2675C114.561 51.1638 114.561 51.1185 114.516 51.0127C114.051 50.0716 112.84 47.7857 111.97 46.2316C111.131 44.7681 110.787 44.2587 110.607 44.0795C111.027 44.1248 111.475 44.1097 111.73 44.1097C112.208 44.1097 112.734 44.0795 113.032 44.0493C113.032 44.168 113.287 44.7961 113.646 45.5883C114.365 47.1274 115.353 49.0549 115.593 49.4867C116.281 48.0685 117.029 46.4237 117.525 45.2581C117.719 44.8112 117.899 44.3925 117.96 44.0773C118.185 44.0924 118.483 44.1076 118.784 44.1076C119.112 44.1076 119.593 44.0773 119.846 44.0471C119.666 44.3169 119.247 45.0789 118.784 46.02C118.23 47.1252 116.898 49.7392 115.864 51.7121C115.355 52.7137 115.011 53.4001 114.905 53.6548C114.696 53.6397 114.455 53.6246 114.066 53.6246V53.6267Z" fill="white"/>
<path d="M123.454 47.0691L121.927 50.8336C121.507 51.9086 121.088 53.1044 120.938 53.657C120.729 53.6419 120.534 53.6268 120.114 53.6268C119.621 53.6268 119.201 53.657 119.037 53.6721C119.396 53.0008 119.95 51.8805 120.668 50.3566L123.303 44.5156C123.543 44.0234 123.616 43.8875 123.722 43.8875C123.783 43.8875 123.887 43.9911 124.127 44.5156C124.306 44.9041 125.654 47.7275 126.807 50.253C127.421 51.5978 128.154 53.1217 128.559 53.6592C128.169 53.6441 127.795 53.629 127.631 53.629C127.123 53.629 126.508 53.6592 126.268 53.6743C126.089 53.1519 125.535 51.8223 125.206 51.0452L123.454 47.0713V47.0691Z" fill="white"/>
<path d="M130.309 47.7706C130.309 45.9488 130.264 44.4983 130.16 44.0795C130.309 44.1098 130.729 44.1098 131.028 44.1098C131.566 44.1098 132.09 44.0795 132.226 44.0493C132.18 44.5415 132.107 46.0956 132.107 47.9045C132.107 47.9498 132.122 47.9649 132.167 47.9649H132.931C134.173 47.9649 135.101 48.1441 135.76 48.5024C136.688 48.9665 137.212 49.7716 137.212 50.8638C137.212 52.418 135.834 53.7174 133.32 53.7174C131.927 53.7174 131.48 53.6289 130.999 53.6289C130.655 53.6289 130.296 53.644 130.19 53.6592C130.266 52.867 130.309 52.2842 130.309 49.9853V47.775V47.7706ZM132.105 49.9832C132.105 52.0143 132.135 52.3273 132.193 52.4029C132.358 52.5518 132.866 52.6425 133.465 52.6425C134.542 52.6425 135.291 52.0295 135.291 50.9696C135.291 50.3868 135.142 49.9098 134.603 49.5061C134.153 49.1629 133.45 49.0291 132.641 49.0291C132.446 49.0291 132.222 49.0442 132.148 49.0442C132.103 49.0593 132.103 49.0744 132.103 49.1046V49.9853L132.105 49.9832Z" fill="white"/>
<path d="M140.249 46.0827C140.34 45.3811 140.413 44.7983 140.504 44.1249C140.534 43.9457 140.58 43.8853 140.623 43.8853C140.714 43.8853 140.742 43.9457 140.833 44.0946C141.103 44.453 141.657 45.4243 142.09 46.0978L144.934 50.8336L147.225 46.8748C148.153 45.515 148.481 44.9624 148.855 44.276C149.065 43.963 149.139 43.8874 149.215 43.8874C149.275 43.8874 149.318 43.9479 149.349 44.2457C149.424 44.8739 149.513 45.6056 149.589 46.2618C149.933 49.2039 150.367 52.8195 150.608 53.657C150.473 53.6419 150.203 53.6268 149.725 53.6268C149.217 53.6268 148.752 53.6419 148.496 53.6721C148.496 52.7461 148.198 49.3097 148.077 47.6217C146.954 49.5795 145.652 51.9539 144.782 53.657C144.692 53.821 144.618 53.7908 144.542 53.6721C143.614 51.7294 142.206 49.3701 141.354 47.6972C141.205 49.7587 140.995 52.6727 140.98 53.657C140.785 53.6268 140.396 53.6268 140.216 53.6268C139.723 53.6268 139.334 53.657 139.154 53.6721C139.349 52.8216 139.888 48.9665 140.247 46.0827H140.249Z" fill="white"/>
<path d="M154.906 51.0128C154.876 51.0128 154.846 51.0279 154.846 51.0581C154.487 51.969 154.082 53.0742 153.933 53.657C153.738 53.6419 153.544 53.6268 153.124 53.6268C152.631 53.6268 152.211 53.657 152.047 53.6721C152.406 53.0008 152.929 51.8805 153.65 50.3566L156.209 44.5156C156.449 44.0385 156.522 43.8875 156.628 43.8875C156.704 43.8875 156.793 43.9911 157.033 44.5156C157.227 44.9041 158.59 47.7124 159.801 50.253C160.461 51.5978 161.164 53.1217 161.569 53.6592C161.179 53.6441 160.805 53.629 160.641 53.629C160.132 53.629 159.518 53.6592 159.278 53.6743C159.053 53.0915 158.514 51.8072 158.17 51.0603C158.17 51.0301 158.155 51.015 158.11 51.015H154.906V51.0128ZM157.675 49.8774C157.721 49.8774 157.721 49.8623 157.721 49.817L156.449 46.8749L155.281 49.817C155.265 49.8623 155.265 49.8774 155.311 49.8774H157.675Z" fill="white"/>
<path d="M163.348 47.7426C163.348 45.9359 163.287 44.6063 163.168 44.0817C163.332 44.0968 163.722 44.112 164.066 44.112C164.574 44.112 165.054 44.0817 165.264 44.0515C165.234 44.5134 165.16 45.651 165.16 47.5332V47.7124C165.16 47.7728 165.175 47.788 165.206 47.788H169.997C170.027 47.788 170.057 47.7728 170.057 47.7124V47.5332C170.057 45.7265 169.982 44.576 169.923 44.0817C170.118 44.0968 170.416 44.112 170.821 44.112C171.286 44.112 171.703 44.0968 172.004 44.0515C171.928 44.5437 171.87 45.9489 171.87 47.7426V49.9832C171.87 51.4769 171.93 53.0613 172.004 53.657C171.84 53.6419 171.42 53.6268 171.091 53.6268C170.656 53.6268 169.999 53.657 169.923 53.6721C169.984 53.1196 170.057 51.5956 170.057 49.9832V49.1327C170.057 49.0874 170.042 49.0723 170.012 49.0723H165.206C165.175 49.0723 165.16 49.1025 165.16 49.1327V49.9832C165.16 51.4769 165.236 53.0613 165.294 53.657C165.145 53.6419 164.829 53.6268 164.47 53.6268C163.901 53.6268 163.408 53.657 163.213 53.6721C163.274 53.1196 163.348 51.5956 163.348 49.9832V47.7426Z" fill="white"/>
<path d="M76.8363 62.7467C76.8363 60.6098 76.7908 58.8937 76.6719 58.4296C76.8363 58.4447 77.271 58.4599 77.5695 58.4599C78.2141 58.4599 78.6035 58.4296 78.8565 58.3994C78.796 58.9822 78.7224 60.6249 78.7224 62.7467V65.3758C78.7224 67.1674 78.783 69.2439 78.8868 69.6929C78.7224 69.6778 78.4088 69.6627 78.0627 69.6627C77.6128 69.6627 76.925 69.6929 76.7 69.7231C76.7757 69.1403 76.8341 67.2883 76.8341 65.3758V62.7467H76.8363ZM78.783 63.8519C78.7679 63.8217 78.7679 63.7483 78.7981 63.703C79.5011 63.0597 80.8335 61.6869 81.9713 60.2666C82.644 59.5197 83.2886 58.6239 83.3794 58.4145C83.559 58.4447 83.7991 58.4599 84.037 58.4599C84.8157 58.4599 85.4733 58.4296 85.7739 58.3994C85.4884 58.6239 84.8006 59.1614 83.7234 60.2363C83.0052 60.9681 80.9698 63.0748 80.6237 63.4936C81.3873 64.48 83.3773 66.6602 84.4263 67.7502C85.8777 69.2137 86.3579 69.4987 86.6564 69.6174C86.5223 69.7059 85.8929 69.7512 85.5338 69.7512C84.2771 69.7512 83.6477 69.5872 82.6007 68.3913C81.2835 66.958 79.8753 65.2096 78.783 63.8497V63.8519Z" fill="white"/>
<path d="M87.898 63.7785C87.898 61.9718 87.8374 60.6119 87.7639 60.1176C87.9434 60.1478 88.1835 60.1478 88.5123 60.1478C89.0509 60.1478 89.65 60.0874 90.5326 60.0874C92.2241 60.0874 93.0482 60.4155 93.6754 60.9681C94.0497 61.2811 94.4693 61.9394 94.4693 62.805C94.4693 64.7326 92.8384 65.8227 90.8462 65.8227C90.8008 65.6435 90.6667 65.1211 90.5758 64.8966C91.6833 64.8362 92.6869 64.3743 92.6869 63.0295C92.6869 62.3129 92.4317 61.8337 91.9991 61.5207C91.6552 61.2228 91.1901 61.0587 90.4417 61.0587C90.2168 61.0587 89.888 61.0739 89.7841 61.1192C89.7387 61.1343 89.7236 61.1494 89.7236 61.389V66.0644C89.7236 67.5279 89.769 69.0972 89.8577 69.6951C89.6327 69.68 89.2434 69.6649 88.8843 69.6649C88.5253 69.6649 87.9413 69.6951 87.7617 69.7102C87.8374 69.1576 87.8958 67.6337 87.8958 66.0212V63.7807L87.898 63.7785Z" fill="white"/>
<path d="M98.496 66.6321C99.9928 65.2291 102.582 62.3755 104.005 61.076C104.948 60.2256 105.277 59.9255 105.398 59.9255C105.504 59.9255 105.532 60.0162 105.532 60.6271V62.5698C105.517 65.8119 105.651 68.9029 105.742 69.7102C105.444 69.68 104.994 69.6649 104.65 69.6649C104.41 69.6649 103.932 69.6951 103.767 69.7102C103.917 68.0374 103.947 64.4671 103.962 63.2411C102.48 64.4671 98.9913 68.2165 97.4945 69.5893C97.2263 69.8441 97.09 69.9023 97.0446 69.9023C96.9689 69.9023 96.9105 69.8441 96.9105 69.4685C96.9105 67.2581 96.8218 61.1473 96.6855 60.1177C96.9992 60.1328 97.4642 60.1479 97.6286 60.1479C97.899 60.1479 98.5717 60.1328 98.721 60.0874C98.6171 61.0286 98.5111 64.1217 98.496 66.63V66.6321Z" fill="white"/>
<path d="M109.485 62.1207C109.576 61.4192 109.65 60.8364 109.74 60.1629C109.771 59.9838 109.816 59.9233 109.859 59.9233C109.95 59.9233 109.978 59.9838 110.069 60.1327C110.34 60.491 110.893 61.4624 111.326 62.1358L114.17 66.8717L116.461 62.9129C117.389 61.553 117.718 61.0005 118.092 60.314C118.302 60.0011 118.375 59.9255 118.451 59.9255C118.511 59.9255 118.555 59.9859 118.585 60.2838C118.661 60.912 118.749 61.6437 118.825 62.2999C119.169 65.242 119.604 68.8576 119.844 69.6951C119.71 69.68 119.439 69.6649 118.961 69.6649C118.453 69.6649 117.988 69.68 117.733 69.7102C117.733 68.7842 117.434 65.3478 117.313 63.6598C116.191 65.6176 114.888 67.992 114.019 69.6951C113.928 69.8591 113.854 69.8289 113.779 69.7102C112.851 67.7675 111.443 65.4082 110.59 63.7353C110.441 65.7967 110.231 68.7108 110.216 69.6951C110.022 69.6649 109.632 69.6649 109.453 69.6649C108.96 69.6649 108.57 69.6951 108.391 69.7102C108.585 68.8597 109.124 65.0046 109.483 62.1207H109.485Z" fill="white"/>
<path d="M123.976 69.6649C123.362 69.6649 123.003 69.6951 122.735 69.7102C123.005 69.4404 123.647 68.6504 124.426 67.3056C124.472 67.202 124.472 67.1566 124.426 67.0509C123.961 66.1097 122.75 63.8238 121.88 62.2697C121.041 60.8062 120.697 60.2968 120.518 60.1198C120.937 60.1651 121.385 60.15 121.64 60.15C122.118 60.15 122.644 60.1198 122.942 60.0896C122.942 60.2083 123.198 60.8364 123.557 61.6286C124.275 63.1676 125.263 65.0952 125.503 65.5269C126.191 64.1088 126.94 62.464 127.435 61.2983C127.63 60.8515 127.809 60.4328 127.87 60.1176C128.095 60.1327 128.393 60.1478 128.694 60.1478C129.023 60.1478 129.503 60.1176 129.756 60.0874C129.576 60.3572 129.157 61.1192 128.694 62.0603C128.14 63.1655 126.808 65.7795 125.774 67.7524C125.265 68.754 124.922 69.4404 124.816 69.6951C124.606 69.68 124.366 69.6649 123.976 69.6649Z" fill="white"/>
</g>
<defs>
<clipPath id="clip0_243_229">
<rect width="172" height="80" fill="white"/>
</clipPath>
</defs>
</svg>
