<svg width="50" height="50" viewBox="0 0 50 50" fill="none" xmlns="http://www.w3.org/2000/svg">
<g clip-path="url(#clip0_243_495)">
<path d="M46.1887 0H3.81126C1.70636 0 0 1.70989 0 3.81915V46.1809C0 48.2901 1.70636 50 3.81126 50H46.1887C48.2936 50 50 48.2901 50 46.1809V3.81915C50 1.70989 48.2936 0 46.1887 0Z" fill="#DC0033"/>
<path d="M8.47994 13.4893C8.24413 13.8944 8.10938 14.3647 8.10938 14.8666V35.1303C8.10938 35.6322 8.24413 36.1026 8.47994 36.5077L19.8374 24.9985L8.47994 13.4893Z" fill="white"/>
<path d="M21.5975 24.4045L23.6682 26.502C24.023 26.8621 24.4947 27.0601 25 27.0601C25.5053 27.0601 25.977 26.8621 26.3318 26.502L28.4025 24.4045L40.281 12.3664C39.9373 12.2089 39.5555 12.1211 39.1513 12.1211H10.8465C10.4445 12.1211 10.0627 12.2089 9.7168 12.3664L21.5953 24.4022L21.5975 24.4045Z" fill="white"/>
<path d="M27.5173 27.6793C26.8458 28.359 25.952 28.7325 24.9997 28.7325C24.0475 28.7325 23.1514 28.359 22.4821 27.6793L21.011 26.1895L9.71875 37.6311C10.0624 37.7887 10.4442 37.8764 10.8484 37.8764H39.1532C39.5552 37.8764 39.937 37.7887 40.2829 37.6311L28.9906 26.1895L27.5196 27.6793H27.5173Z" fill="white"/>
<path d="M30.1641 24.9985L41.5215 36.5077C41.7573 36.1026 41.892 35.6322 41.892 35.1303V14.8666C41.892 14.3647 41.7573 13.8944 41.5215 13.4893L30.1641 24.9985Z" fill="white"/>
</g>
<defs>
<clipPath id="clip0_243_495">
<rect width="50" height="50" fill="white"/>
</clipPath>
</defs>
</svg>
