<svg width="129" height="150" viewBox="0 0 129 150" fill="none" xmlns="http://www.w3.org/2000/svg">
<g clip-path="url(#clip0_243_535)">
<rect width="128.999" height="150" fill="#DC0033"/>
<path d="M90.9382 54.5056C81.7786 40.046 59.2633 37.4712 46.675 49.4263C35.6826 62.8184 41.3141 81.1288 40.2106 96.7282C39.5278 106.377 40.0119 136.25 36.1181 145.455C35.7503 146.326 35.3148 147.2 34.6045 147.84C34.2642 148.147 32.9219 149.045 33.129 149.632C33.3975 150.392 34.9259 149.758 35.5431 149.646C62.3665 149.423 53.2133 97.3415 54.7755 80.687C54.4669 67.8276 56.8471 35.3177 76.5868 47.8302C92.8851 65.6719 81.136 93.4803 58.4579 97.5087C77.1068 105.039 107.953 81.3002 90.9361 54.5098L90.9382 54.5056Z" fill="white"/>
<path d="M47.125 37.4777C49.7526 33.5753 50.9638 32.0618 52.8029 27.5482C56.4685 18.5603 51.6741 7.74497 45.1696 1.99664C44.2754 1.20789 43.21 0.274615 42.0791 0C45.1041 4.19562 47.1207 7.61489 45.1696 13.2951C42.8443 20.0614 36.5744 28.3638 32.5263 34.1782C17.9192 55.1584 49.8223 8.75465 35.2469 29.7596C27.0174 41.6197 20.7687 51.6565 20.0394 67.289C19.4116 80.7616 26.3664 92.1654 34.9319 100.358C49.7737 114.554 72.7435 115.667 89.7626 104.35C104.334 94.6617 112.722 73.1901 107.38 54.9912C106.253 51.1548 104.177 43.8538 96.1064 37.1742C89.4328 31.6509 77.4681 28.3907 74.5593 26.712C74.4769 26.9866 78.2967 29.5325 78.47 29.6481C87.9848 36.0572 90.1579 37.2444 94.762 41.1923C101.943 47.3494 103.49 55.1646 103.915 61.138C105.837 88.1824 86.6953 107.263 63.9919 108.642C45.4423 109.768 25.5906 97.3893 28.5247 73.5473C30.1841 60.0684 39.7559 47.7975 47.1271 37.4798" fill="white"/>
</g>
<defs>
<clipPath id="clip0_243_535">
<rect width="128.999" height="150" fill="white"/>
</clipPath>
</defs>
</svg>
