<svg width="50" height="50" viewBox="0 0 50 50" fill="none" xmlns="http://www.w3.org/2000/svg">
<path d="M46.1887 0H3.81126C1.70636 0 0 1.70989 0 3.81915V46.1809C0 48.2901 1.70636 50 3.81126 50H46.1887C48.2936 50 50 48.2901 50 46.1809V3.81915C50 1.70989 48.2936 0 46.1887 0Z" fill="#DC0033"/>
<path d="M15.4309 19.1592H8.21484V42.5219H15.4309V19.1592Z" fill="white"/>
<path d="M11.7906 16.1003C14.1488 16.1003 16.0578 14.1693 16.0578 11.7883C16.0578 9.40722 14.1488 7.47852 11.7906 7.47852C9.43243 7.47852 7.52344 9.40947 7.52344 11.7883C7.52344 14.1671 9.43243 16.1003 11.7906 16.1003Z" fill="white"/>
<path d="M26.9687 30.2583C26.9687 26.9748 28.4779 25.0169 31.3661 25.0169C34.0185 25.0169 35.2941 26.896 35.2941 30.2583V42.5215H42.4765V27.7287C42.4765 21.47 38.937 18.4453 33.9938 18.4453C29.0506 18.4453 26.9687 22.305 26.9687 22.305V19.1587H20.0469V42.5215H26.9687V30.2583Z" fill="white"/>
</svg>
