<svg width="89" height="85" viewBox="0 0 89 85" fill="none" xmlns="http://www.w3.org/2000/svg">
<g clip-path="url(#clip0_243_576)">
<path d="M59.057 30.8864C54.0139 22.6927 41.6176 21.2337 34.6868 28.0081C28.6346 35.5969 31.7352 45.9727 31.1277 54.8122C30.7517 60.2797 31.0182 77.2077 28.8744 82.4236C28.6719 82.9174 28.4321 83.4123 28.0411 83.775C27.8537 83.9494 27.1146 84.4583 27.2287 84.7906C27.3765 85.2212 28.218 84.862 28.5578 84.7988C43.3261 84.6724 38.2866 55.1597 39.1467 45.7223C38.9768 38.4354 40.2873 20.0133 51.1555 27.1037C60.1289 37.2139 53.6601 52.9718 41.1742 55.2545C51.4418 59.5216 68.425 46.0698 59.0558 30.8887L59.057 30.8864Z" fill="#DC0033"/>
<path d="M34.9343 21.2371C36.381 19.0258 37.0479 18.1682 38.0605 15.6105C40.0786 10.5174 37.439 4.38877 33.8578 1.13141C33.3654 0.684465 32.7789 0.155613 32.1562 0C33.8217 2.37749 34.932 4.31505 33.8578 7.53379C32.5775 11.368 29.1255 16.0726 26.8967 19.3674C18.8543 31.2561 36.4194 4.96091 28.3946 16.8636C23.8636 23.5842 20.4232 29.2717 20.0217 38.13C19.676 45.7644 23.5052 52.2264 28.2212 56.8691C36.3927 64.913 49.0393 65.5437 58.4096 59.1307C66.4321 53.641 71.0503 41.4739 68.1092 31.1613C67.4889 28.9874 66.346 24.8502 61.9023 21.0651C58.228 17.9353 51.6405 16.0879 50.039 15.1366C49.9936 15.2922 52.0967 16.7349 52.1922 16.8004C57.4307 20.4322 58.6272 21.1049 61.1621 23.342C65.1158 26.831 65.9677 31.2596 66.2017 34.6444C67.2596 49.9694 56.7208 60.7816 44.2208 61.5632C34.0079 62.2009 23.078 55.1866 24.6935 41.6763C25.6071 34.0384 30.8771 27.0849 34.9355 21.2383" fill="#DC0033"/>
</g>
<defs>
<clipPath id="clip0_243_576">
<rect width="89.0008" height="84.9992" fill="white"/>
</clipPath>
</defs>
</svg>
