<svg width="615" height="85" viewBox="0 0 615 85" fill="none" xmlns="http://www.w3.org/2000/svg">
<g clip-path="url(#clip0_243_575)">
<path d="M59.057 30.8864C54.0139 22.6927 41.6176 21.2337 34.6868 28.0081C28.6346 35.5969 31.7352 45.9727 31.1277 54.8122C30.7517 60.2797 31.0182 77.2077 28.8744 82.4236C28.6719 82.9174 28.4321 83.4123 28.0411 83.775C27.8537 83.9494 27.1146 84.4583 27.2287 84.7906C27.3765 85.2212 28.218 84.862 28.5578 84.7988C43.3261 84.6724 38.2866 55.1597 39.1467 45.7223C38.9768 38.4354 40.2873 20.0133 51.1555 27.1037C60.1289 37.2139 53.6601 52.9718 41.1742 55.2545C51.4418 59.5216 68.425 46.0698 59.0558 30.8887L59.057 30.8864Z" fill="#DC0033"/>
<path d="M34.9343 21.2371C36.381 19.0258 37.0479 18.1682 38.0605 15.6105C40.0786 10.5174 37.439 4.38877 33.8578 1.13141C33.3654 0.684465 32.7789 0.155613 32.1562 0C33.8217 2.37749 34.932 4.31505 33.8578 7.53379C32.5775 11.368 29.1255 16.0726 26.8967 19.3674C18.8543 31.2561 36.4194 4.96091 28.3946 16.8636C23.8636 23.5842 20.4232 29.2717 20.0217 38.13C19.676 45.7644 23.5052 52.2264 28.2212 56.8691C36.3927 64.913 49.0393 65.5437 58.4096 59.1307C66.4321 53.641 71.0503 41.4739 68.1092 31.1613C67.4889 28.9874 66.346 24.8502 61.9023 21.0651C58.228 17.9353 51.6405 16.0879 50.039 15.1366C49.9936 15.2922 52.0967 16.7349 52.1922 16.8004C57.4307 20.4322 58.6272 21.1049 61.1621 23.342C65.1158 26.831 65.9677 31.2596 66.2017 34.6444C67.2596 49.9694 56.7208 60.7816 44.2208 61.5632C34.0079 62.2009 23.078 55.1866 24.6935 41.6763C25.6071 34.0384 30.8771 27.0849 34.9355 21.2383" fill="#DC0033"/>
</g>
<path d="M119.971 65.8316C111.395 65.8316 106.275 60.1356 106.275 50.7916V34.4076C106.275 25.0636 111.395 19.3676 119.971 19.3676C128.547 19.3676 133.667 25.0636 133.667 34.4076V50.7916C133.667 60.1356 128.547 65.8316 119.971 65.8316ZM119.971 59.4956C124.579 59.4956 127.011 56.4236 127.011 50.7916V34.4076C127.011 28.7756 124.579 25.7036 119.971 25.7036C115.299 25.7036 112.931 28.7756 112.931 34.4076V50.7916C112.931 56.4236 115.299 59.4956 119.971 59.4956ZM165.495 64.9996L154.551 45.4156L151.607 49.8316V64.9996H145.207V20.1996H151.607V39.6556L154.551 34.4076L163.511 20.1996H171.063L158.263 39.7196L172.919 64.9996H165.495ZM191.101 65.8316C183.165 65.8316 178.045 60.9036 177.981 52.7116H184.573C184.637 57.3196 187.133 59.5596 191.101 59.5596C195.389 59.5596 197.501 56.9996 197.501 53.4156C197.501 44.5196 178.749 44.0076 178.749 30.6956C178.749 24.2316 183.485 19.3676 191.037 19.3676C198.717 19.3676 203.325 24.2956 203.517 31.9116H196.925C196.797 27.6236 194.557 25.5756 191.101 25.5756C187.453 25.5756 185.341 27.6236 185.341 30.8236C185.341 39.5916 204.157 39.5916 204.157 53.4796C204.157 60.1356 199.485 65.8316 191.101 65.8316ZM233.264 64.9996L231.152 55.9756H219.312L217.264 64.9996H210.48L221.744 20.1996H228.72L239.984 64.9996H233.264ZM220.72 49.9596H229.808L226.992 37.9276C226.352 34.9836 225.648 30.6956 225.328 28.3276H225.136C224.816 30.6956 224.176 34.9836 223.472 37.9276L220.72 49.9596ZM268.95 20.1996H275.35V64.9996H268.886L258.902 43.0476C257.558 39.7196 255.702 35.0476 254.614 32.1676L254.422 32.2956C254.87 36.7756 255.19 43.4956 255.19 47.7196V64.9996H248.79V20.1996H255.254L265.558 43.0476C266.902 46.0556 268.566 50.2156 269.654 52.9036L269.846 52.7756C269.334 48.3596 268.95 41.6396 268.95 37.6716V20.1996ZM306.882 64.9996L304.77 55.9756H292.93L290.882 64.9996H284.098L295.362 20.1996H302.338L313.602 64.9996H306.882ZM294.338 49.9596H303.426L300.61 37.9276C299.97 34.9836 299.266 30.6956 298.946 28.3276H298.754C298.434 30.6956 297.794 34.9836 297.09 37.9276L294.338 49.9596ZM351.838 20.1996C360.606 20.1996 365.598 25.5116 365.598 34.6636C365.598 44.0716 360.606 49.2556 351.838 49.2556H346.462V64.9996H339.998V20.1996H351.838ZM351.774 43.1116C356.638 43.1116 359.006 40.4236 359.006 34.6636C359.006 29.1596 356.638 26.3436 351.774 26.3436H346.462V43.1116H351.774ZM381.426 58.8556H396.274V64.9996H374.962V20.1996H381.426V58.8556ZM411.517 58.9196H427.645V64.9996H405.053V20.1996H427.005V26.2796H411.517V39.2716H425.789V45.2236H411.517V58.9196ZM448.696 65.8316C440.76 65.8316 435.64 60.9036 435.576 52.7116H442.168C442.232 57.3196 444.728 59.5596 448.696 59.5596C452.984 59.5596 455.096 56.9996 455.096 53.4156C455.096 44.5196 436.344 44.0076 436.344 30.6956C436.344 24.2316 441.08 19.3676 448.632 19.3676C456.312 19.3676 460.92 24.2956 461.112 31.9116H454.52C454.392 27.6236 452.152 25.5756 448.696 25.5756C445.048 25.5756 442.936 27.6236 442.936 30.8236C442.936 39.5916 461.752 39.5916 461.752 53.4796C461.752 60.1356 457.08 65.8316 448.696 65.8316ZM490.494 20.1996H496.958V64.9996H490.494V45.3516H477.822V64.9996H471.358V20.1996H477.822V39.2716H490.494V20.1996ZM530.048 64.9996L519.104 45.4156L516.16 49.8316V64.9996H509.76V20.1996H516.16V39.6556L519.104 34.4076L528.064 20.1996H535.616L522.816 39.7196L537.472 64.9996H530.048ZM564.539 64.9996L562.427 55.9756H550.587L548.539 64.9996H541.755L553.019 20.1996H559.995L571.259 64.9996H564.539ZM551.995 49.9596H561.083L558.267 37.9276C557.627 34.9836 556.923 30.6956 556.603 28.3276H556.411C556.091 30.6956 555.451 34.9836 554.747 37.9276L551.995 49.9596ZM600.225 20.1996H606.625V64.9996H600.161L590.177 43.0476C588.833 39.7196 586.977 35.0476 585.889 32.1676L585.697 32.2956C586.145 36.7756 586.465 43.4956 586.465 47.7196V64.9996H580.065V20.1996H586.529L596.833 43.0476C598.177 46.0556 599.841 50.2156 600.929 52.9036L601.121 52.7756C600.609 48.3596 600.225 41.6396 600.225 37.6716V20.1996Z" fill="white"/>
<defs>
<clipPath id="clip0_243_575">
<rect width="89.0008" height="84.9992" fill="white"/>
</clipPath>
</defs>
</svg>
