<svg width="50" height="50" viewBox="0 0 50 50" fill="none" xmlns="http://www.w3.org/2000/svg">
<path d="M46.1887 0H3.81126C1.70636 0 0 1.70989 0 3.81915V46.1809C0 48.2901 1.70636 50 3.81126 50H46.1887C48.2936 50 50 48.2901 50 46.1809V3.81915C50 1.70989 48.2936 0 46.1887 0Z" fill="#DC0033"/>
<path d="M31.528 19.8093C29.2664 16.1477 23.7078 15.4951 20.5995 18.522C17.8865 21.9136 19.2767 26.5519 19.0027 30.5039C18.8343 32.9479 18.9533 40.5142 17.9921 42.8458C17.9 43.0663 17.7944 43.2869 17.6193 43.4489C17.5362 43.5277 17.2038 43.755 17.2554 43.9035C17.3228 44.0948 17.6979 43.935 17.8506 43.908C24.4737 43.8517 22.2143 30.6591 22.5984 26.4394C22.522 23.1829 23.1104 14.9482 27.984 18.1169C32.0086 22.636 29.1069 29.6802 23.5079 30.6997C28.112 32.6081 35.7278 26.5947 31.5257 19.8071L31.528 19.8093Z" fill="white"/>
<path d="M20.7116 15.495C21.3607 14.507 21.6594 14.1222 22.113 12.9789C23.0181 10.7014 21.8346 7.96246 20.2288 6.50637C20.0087 6.30607 19.7459 6.06977 19.4652 6C20.213 7.06225 20.7094 7.9287 20.2288 9.36679C19.6538 11.0794 18.1064 13.1837 17.107 14.6555C13.5001 19.969 21.3764 8.21452 17.7785 13.537C15.746 16.5415 14.2031 19.0846 14.0234 23.0433C13.8684 26.4551 15.5865 29.3447 17.6999 31.4197C21.3652 35.0161 27.036 35.2974 31.2381 32.4302C34.836 29.9771 36.9067 24.5376 35.5883 19.9285C35.3098 18.9563 34.7978 17.1064 32.8057 15.4162C31.1572 14.0164 28.2039 13.1904 27.4852 12.7673C27.465 12.8371 28.4082 13.4808 28.4509 13.5123C30.8001 15.1349 31.3369 15.4365 32.4733 16.4357C34.2475 17.9953 34.6293 19.9758 34.7326 21.4881C35.2065 28.3388 30.4812 33.1706 24.8755 33.5217C20.2961 33.8075 15.3934 30.6703 16.1188 24.6321C16.5275 21.2181 18.8925 18.1101 20.7116 15.4972" fill="white"/>
</svg>
