<svg width="40" height="40" viewBox="0 0 40 40" fill="none" xmlns="http://www.w3.org/2000/svg">
<path d="M25 21.25L32.3625 21.25C32.1302 22.7971 31.5778 24.2787 30.7405 25.6002C29.9033 26.9217 28.7996 28.0541 27.5 28.925L25.2625 30.425L26.6375 32.5L28.875 31C30.7584 29.7449 32.3029 28.0443 33.3713 26.0491C34.4398 24.0539 34.9992 21.8258 35 19.5625L35 11.25C35 10.587 34.7366 9.95108 34.2678 9.48224C33.7989 9.0134 33.163 8.75 32.5 8.75L25 8.75C24.337 8.75 23.7011 9.0134 23.2322 9.48224C22.7634 9.95108 22.5 10.587 22.5 11.25L22.5 18.75C22.5 19.413 22.7634 20.0489 23.2322 20.5178C23.7011 20.9866 24.337 21.25 25 21.25ZM7.5 21.25L14.8625 21.25C14.6302 22.7971 14.0778 24.2787 13.2405 25.6002C12.4033 26.9217 11.2996 28.0541 10 28.925L7.7625 30.425L9.125 32.5L11.375 31C13.2584 29.7449 14.8029 28.0443 15.8713 26.0491C16.9398 24.0539 17.4992 21.8258 17.5 19.5625L17.5 11.25C17.5 10.587 17.2366 9.95108 16.7678 9.48223C16.2989 9.0134 15.663 8.75 15 8.75L7.5 8.75C6.83696 8.75 6.20108 9.01339 5.73224 9.48223C5.2634 9.95108 5 10.587 5 11.25L5 18.75C5 19.413 5.26339 20.0489 5.73223 20.5178C6.20108 20.9866 6.83696 21.25 7.5 21.25Z" fill="white"/>
</svg>
