<svg width="247" height="70" viewBox="0 0 247 70" fill="none" xmlns="http://www.w3.org/2000/svg">
<g clip-path="url(#clip0_243_157)">
<path d="M131.186 40.3916L130.871 43.3613C128.023 45.726 123.089 47.3713 119.328 47.3713H115.817L111.7 46.8143C105.102 45.4272 100.403 40.8454 98.4345 33.7439C96.3342 40.7605 91.514 45.6117 84.6337 46.7663L80.6273 47.4377L77.0973 47.3677C70.8549 47.2385 64.2899 44.0217 61.2108 38.4623C58.0291 32.7184 58.2234 26.1186 60.7966 20.0686C56.7278 19.7439 53.0916 20.1571 49.7193 21.7176L49.6826 46.8844H35.9368L35.9258 8.61403L46.5522 8.66937C48.0478 8.67675 48.8579 10.8348 49.3674 12.4543C52.868 9.21904 57.0321 7.36713 61.647 8.6915L61.7386 17.9695C62.611 17.3534 63.0692 16.8222 63.7547 16.1028C67.5522 12.115 73.0212 10.2335 78.4902 10.3959C87.6138 10.0897 95.2198 14.4575 98.1889 23.5105C99.4609 16.848 103.042 11.9047 108.892 9.45514C111.447 8.38531 114.035 7.7471 116.77 7.7471H120.472C124.071 7.73972 127.308 8.6583 130.636 10.6061L130.625 20.6404L125.05 20.6256C122.418 17.4235 117.745 16.8185 114.512 19.4082C114.009 19.8103 113.232 21.1052 113.02 21.736C111.627 25.8493 111.73 30.2578 113.221 34.2198C114.842 38.5213 121.381 38.3811 125.167 34.9429L130.475 34.7806C130.834 30.0475 133.393 26.2773 137.755 24.6873C140.889 23.5474 144.39 22.9276 147.711 23.2818L152.238 23.7687C152.513 22.2267 152.443 20.0354 151.208 19.1279C149.107 17.5821 146.369 17.785 143.961 18.1429C139.467 18.8106 137.924 21.5774 133.441 20.5592L133.397 10.7205C140.981 7.5442 151.065 6.37846 158.766 9.00138C162.776 10.3663 166.049 14.0886 166.06 18.5966L166.13 46.8364L157.842 46.7922C155.874 46.7811 154.283 45.8957 153.337 43.8889C150.233 46.6225 146.501 47.4119 142.59 47.3492C137.663 47.2681 133.719 45.3239 131.183 40.399L131.186 40.3916ZM83.4754 29.1843C83.4864 24.9529 82.691 20.4006 79.0218 20.3121C76.115 20.2383 74.3372 23.5142 74.3298 25.2591L74.3005 32.7995C74.2932 34.8912 76.1296 38.3331 79.3956 38.0897C82.6617 37.8462 83.4681 33.1906 83.4791 29.1879L83.4754 29.1843ZM152.315 36.4739L152.359 31.0362L147.795 30.9366C146.171 30.8997 144.397 31.8662 144.034 33.4341C143.616 35.2343 144.045 36.8686 145.35 37.8794C147.406 39.4694 150.533 38.6393 152.315 36.4775V36.4739Z" fill="white"/>
<path d="M227.877 47.3972L223.075 46.6999C215.135 45.0104 210.029 38.3516 209.622 30.2357C209.545 28.6936 209.289 27.0963 209.574 25.5579L210.593 20.0723C206.862 19.6997 203.079 20.0981 199.285 21.6032L199.223 46.8733H185.466L185.455 8.60667L196.367 8.72841C197.713 8.74316 198.574 10.975 198.941 12.4064C202.581 9.23012 206.833 7.22696 211.521 8.71734L211.744 17.1911C215.432 11.1779 220.762 8.10495 227.301 7.74343H230.981C239.441 7.73236 245.585 13.1516 246.846 21.9721L247 30.9403L223.83 30.9513C223.749 34.7695 226.447 37.5031 230.182 37.6581C233.917 37.813 237.605 37.1895 240.871 34.8802L245.655 34.8986L245.706 43.3982C243.1 45.0214 240.365 46.3679 237.304 46.7221L231.579 47.3787L227.873 47.3935L227.877 47.3972ZM233.855 23.1158C233.848 20.692 233.368 18.4675 231.407 17.2833C229.823 16.3279 227.067 16.5271 225.762 17.9732C224.457 19.4193 224.035 21.2712 223.782 23.1268L233.859 23.1158H233.855Z" fill="white"/>
<path d="M23.9693 46.8106L16.202 46.9213C14.5562 46.9435 12.5365 46.8623 11.0702 45.9843C10.2418 45.4863 9.55269 43.3429 9.55269 42.3174L9.54535 19.9801L0.00390625 19.969V8.60669H33.5254L33.4998 17.5121C33.4961 18.984 31.7806 19.6702 30.5527 19.9211L23.9693 19.9875V46.807V46.8106Z" fill="white"/>
<path d="M182.688 12.5724L182.702 46.8733H168.931L168.92 8.61035L179.502 8.65093C181.445 8.65831 182.211 10.6836 182.684 12.5761L182.688 12.5724Z" fill="white"/>
<path d="M95.1687 58.2061L91.6021 58.6746L91.5801 61.5853L93.9993 61.8251C94.0433 62.2493 94.0763 63.2343 93.8564 63.5442C93.5925 63.9205 92.6981 63.8909 91.7634 64.0164C91.5324 64.7062 91.5288 66.1818 91.6241 67.307L93.7648 67.3882C94.2889 67.4066 95.0953 67.8309 95.1613 68.3031C95.4179 70.1365 91.8293 70.273 88.7723 69.4541L88.7246 57.1473C88.7906 56.9039 89.5127 56.0923 89.8719 56.107L94.1643 56.2841C95.165 56.3247 95.3006 56.321 96.1657 56.2915L102.426 56.0959L102.452 58.4791L100.388 58.7742L100.278 69.1442C100.267 70.0332 97.9032 69.9705 97.8665 69.2327L97.7455 58.7004L95.1723 58.2098L95.1687 58.2061Z" fill="white"/>
<path d="M214.746 56.31L212.777 68.4138C212.656 69.1663 212.125 69.8894 211.322 69.9189C209.467 69.989 210.347 66.0712 208.943 63.725L208.148 68.3031C208.034 68.9598 207.671 69.7197 207.103 69.8968C206.63 70.048 205.652 69.3951 205.564 68.8638L203.727 57.8446C203.599 57.0662 203.954 56.1513 204.621 56.048C207.132 55.6644 205.505 59.4899 207.143 61.9173L208.192 56.2399L209.86 56.2103C210.838 56.1956 210.285 60.0433 211.421 62.7547L212.44 56.1735L214.742 56.3063L214.746 56.31Z" fill="white"/>
<path d="M221.917 68.1444C221.594 69.6975 219.541 69.989 218.427 69.9558C217.401 69.9226 215.418 68.8269 215.41 67.4878L215.352 58.9402C215.337 57.0367 216.847 56.0701 218.559 56.0185C220.443 55.9595 222.019 56.8116 222.214 58.8996C222.485 61.8177 222.565 65.0493 221.917 68.1518V68.1444ZM219.622 66.5176L219.574 58.8111C219.574 58.5049 218.709 58.1065 218.548 58.2983C218.423 58.4459 217.874 59.0398 217.87 59.228L217.837 66.6024C217.837 66.9234 218.478 67.5173 218.757 67.5726C219.036 67.628 219.622 66.9566 219.618 66.5212L219.622 66.5176Z" fill="white"/>
<path d="M230.207 68.8676C230.292 69.2106 229.676 69.978 229.324 69.9743C228.972 69.9706 228.067 69.6054 227.938 69.2254L226.292 64.2857L225.893 69.2512C225.845 69.8304 224.394 69.9854 223.518 69.6054V56.203L227.612 56.1883C229.672 56.1809 230.343 58.2578 230.306 59.9548C230.27 61.6518 230.072 62.5482 229.042 64.0607L230.207 68.8676ZM227.795 60.4565C227.876 60.1134 227.733 58.8776 227.421 58.7669L226.043 58.2763L226.08 61.8215C226.08 62.1129 227.374 62.2641 227.44 61.9801L227.792 60.4565H227.795Z" fill="white"/>
<path d="M126.091 69.0778C126.19 69.4357 125.101 70.1255 124.79 69.9817C124.416 69.8083 123.771 69.2623 123.569 68.8823C123.118 67.2518 123.162 65.9052 121.93 64.6657L121.718 69.2844C121.685 70.0186 119.365 70.037 119.361 69.266L119.324 56.203L123.448 56.1883C125.523 56.1809 126.153 58.2541 126.12 59.9622C126.087 61.6702 126.003 62.9134 124.669 64.0386L126.091 69.0778ZM123.609 60.0691C123.642 59.7482 123.514 58.7079 123.213 58.6931L121.787 58.6193C121.787 59.6191 121.817 61.091 121.996 61.8657C122.077 62.2162 123.4 62.1424 123.437 61.7772L123.609 60.0728V60.0691Z" fill="white"/>
<path d="M245.335 66.5656C245.339 69.7861 242.099 70.2657 238.602 69.6865L238.62 56.1882L242.733 56.2214C244.236 56.2325 245.324 57.8446 245.324 59.2465L245.335 66.5656ZM242.835 66.8533L242.824 59.11C242.733 58.73 241.413 58.4865 241.072 58.6341L241.079 67.3809C241.395 67.5727 242.835 67.2665 242.835 66.8533Z" fill="white"/>
<path d="M152.751 68.9928C152.861 69.3913 151.85 70.0073 151.523 69.9336C151.135 69.845 150.402 69.3138 150.281 68.8932L148.983 64.4848C147.843 66.3957 149.346 68.9855 147.972 69.7897C147.543 70.0405 146.091 69.6864 146.091 69.181L146.08 56.2397L150.486 56.2545C152.663 56.2619 154.1 61.1388 151.41 64.2155L152.751 68.9892V68.9928ZM149.104 62.2492C150.017 62.1054 150.435 60.9322 150.398 60.1686C150.358 59.3127 150.054 58.7409 148.994 58.2208C148.367 59.1762 148.188 61.006 149.104 62.2492Z" fill="white"/>
<path d="M181.654 56.568C181.698 55.9741 183.762 55.9446 184.077 56.5201L184.015 67.3622C184.004 69.0334 181.929 70.0147 180.76 69.963C179.279 69.8966 177.263 69.3543 177.252 67.5098L177.189 57.1841C177.189 56.7008 177.904 55.9667 178.296 56.0663C178.762 56.1807 179.539 56.4869 179.858 56.6639L179.818 67.2405L181.042 67.4618C181.332 67.5135 181.588 66.7056 181.592 66.3699L181.654 56.568Z" fill="white"/>
<path d="M110.505 68.9007C110.505 69.7049 108.24 70.2583 108.203 69.5315L107.998 65.2707C107.979 64.9091 107.66 64.2488 107.418 64.0201C107.177 63.7914 106.07 64.057 106.059 64.4185L105.923 69.2327C105.905 69.9373 103.98 70.048 103.5 69.4135V56.5018C104.017 55.9816 105.377 56.0665 105.923 56.5534L106.077 61.3344C106.092 61.8435 107.921 61.8325 107.954 61.3344L108.067 56.4132C108.624 56.1402 109.625 56.107 110.487 56.2546L110.509 68.8896L110.505 68.9007Z" fill="white"/>
<path d="M79.1763 67.2221C79.1763 69.0519 77.4315 69.8376 76.1889 69.9483C74.884 70.0627 72.6113 69.4503 72.6113 67.7017V57.9367C72.6113 56.4611 74.928 56.011 75.9983 56.0184C77.6331 56.0295 79.1873 56.8779 79.1837 58.5971L79.1727 67.2221H79.1763ZM76.7168 66.9786L76.7791 58.918C76.4345 58.6229 75.936 58.2982 75.6208 58.3462C75.3055 58.3942 74.9316 59.2537 74.9316 59.5931L75.0049 67.1483C75.0086 67.5947 76.7131 67.4324 76.7168 66.9749V66.9786Z" fill="white"/>
<path d="M144.646 67.3512C144.635 68.8601 142.699 69.893 141.647 69.9594C140.379 70.0369 138.051 69.3655 138.044 67.7718L138 58.206C137.993 56.7009 139.921 56.0996 141.101 56.0147C143.245 55.8635 144.73 57.1473 144.712 59.2796L144.649 67.3512H144.646ZM142.212 66.2593L142.197 58.9512C141.9 58.6487 141.416 58.3204 141.108 58.3167C140.863 58.3167 140.419 59.0398 140.419 59.3423L140.412 66.4031C140.412 66.8052 140.98 67.5135 141.336 67.5431C141.691 67.5726 142.215 66.7979 142.212 66.2556V66.2593Z" fill="white"/>
<path d="M84.4208 64.8979L83.4751 64.0199C83.2771 63.8391 83.673 62.8726 83.9369 62.8689L87.3312 62.8173L87.3496 69.4797L84.0396 69.8892C83.2551 69.9851 82.1078 69.7785 81.4664 69.2436C80.9495 68.8157 80.5903 67.5983 80.5866 66.7793L80.5353 59.3053C80.5206 57.398 81.6166 56.1917 83.4348 56.0257C85.5168 55.8339 86.972 56.8963 87.2359 59.1208C87.2799 59.5008 87.2946 60.3751 87.181 60.7256C87.0453 61.1461 85.8284 61.1756 85.3885 61.1129C84.9486 61.0502 84.5674 60.2386 84.5308 59.7258L84.4611 58.7704C84.4428 58.5343 83.86 58.5564 83.1378 58.5638L83.0352 66.4326C83.0315 66.7941 83.607 67.5651 83.9663 67.543C84.3255 67.5208 84.9193 66.783 84.923 66.4178C84.9303 65.9825 84.6737 65.1303 84.4245 64.8979H84.4208Z" fill="white"/>
<path d="M162.926 69.8119C161.299 69.2179 162.769 66.7721 160.661 67.0229C159.411 67.1705 160.287 68.6793 159.154 69.7787C158.806 70.1181 157.373 69.6459 157.281 69.1405L159.459 56.4722C160.294 56.0553 161.5 56.048 162.417 56.2878L164.7 69.2401C164.499 69.6532 163.377 69.9779 162.93 69.8156L162.926 69.8119ZM161.376 63.522L161.053 62.4596C161.046 62.4337 160.441 62.7879 160.511 63.5515L160.613 64.6214C160.632 64.8279 161.431 64.5402 161.449 64.3336C161.467 64.127 161.438 63.7286 161.376 63.522Z" fill="white"/>
<path d="M187.93 69.8857C184.639 69.336 185.247 64.9903 185.658 64.9829L187.366 64.9645C187.853 64.9571 187.226 66.7537 188.535 67.7313C188.839 67.96 189.756 67.0304 189.686 66.6061C189.184 63.6696 185.533 62.8617 185.412 59.346C185.339 57.258 186.666 55.9779 188.693 56.0185C189.459 56.0333 190.551 56.262 190.998 56.7157C191.614 57.3355 191.874 58.2356 191.962 59.2981C192.032 60.1355 191.68 60.8401 190.965 60.8069C190.192 60.77 189.785 60.213 189.554 59.453L189.264 58.5049C189.191 58.2578 188.256 58.302 188.113 58.5677C186.955 60.7294 191.368 62.1239 192.138 65.7244C192.355 66.7389 191.907 68.2256 191.35 68.8786C190.595 69.7603 189.195 70.096 187.93 69.882V69.8857Z" fill="white"/>
<path d="M115.065 64.0495C114.266 64.3114 114.277 66.4621 114.849 67.3401L117.825 67.5246C118.173 67.5467 118.386 68.6424 118.269 68.9707C118.126 69.3654 117.396 69.8966 116.934 69.9003L113.251 69.9261C112.719 69.9261 111.946 69.1441 111.949 68.5612L112.001 56.1586L118.03 56.1438L117.847 58.2466C117.814 58.6413 116.615 58.5601 116.216 58.5933L114.757 58.7151C114.303 58.752 114.343 61.3675 114.9 61.4745L116.612 61.7991C117.052 61.884 117.36 62.7989 117.136 63.3006C116.956 63.6953 116.172 63.8798 115.076 64.0568L115.065 64.0495Z" fill="white"/>
<path d="M168.979 64.0236L171.398 63.8539L171.42 66.3478C171.42 66.6687 171.709 67.5873 171.973 67.4877L173.146 67.0413L173.154 56.3983C173.857 56.0774 174.832 56.1217 175.628 56.5422L175.613 66.6945C175.613 68.5464 174.173 69.8229 172.633 69.9667C171.002 70.118 169.191 69.1846 169.114 67.2479L168.982 64.0236H168.979Z" fill="white"/>
<path d="M136.208 61.7623L136.237 63.8503L133.767 64.0459L133.745 68.244C133.745 68.7125 133.437 69.5536 133.089 69.7934C132.74 70.0332 131.604 69.8192 131.285 69.4134L131.303 56.1992L136.886 56.1328C137.407 56.4685 137.432 58.2983 136.897 58.4606L133.748 58.6524L133.741 61.7033L136.212 61.7623H136.208Z" fill="white"/>
<path d="M69.5911 62.478L69.5764 66.108C69.5728 67.0376 69.7597 68.4653 69.4591 69.299C69.2392 69.8745 67.2342 69.7011 66.9556 69.1404L66.9152 58.6708C66.1015 58.5638 65.3244 58.4716 64.9285 58.2613C64.4703 58.0142 64.7562 56.3541 65.2364 56.1512L71.7978 56.1069L71.8821 58.5343L69.6937 58.6376L69.5948 62.478H69.5911Z" fill="white"/>
<path d="M197.43 67.8123C197.43 68.2108 197.514 69.3802 197.144 69.4281L195.484 69.6495C195.04 69.7085 194.813 68.5575 194.802 68.0042L194.662 58.6376C193.786 58.5454 193.072 58.4753 192.687 58.254C192.24 57.9957 192.518 56.3467 192.987 56.1475L198.845 56.1069C199.38 56.1069 199.783 57.269 199.67 57.7227C199.494 58.4237 198.812 58.6893 197.478 58.5565L197.434 67.8086L197.43 67.8123Z" fill="white"/>
<path d="M236.909 67.5099C237.569 67.5985 237.661 69.6754 236.843 69.7676C235.025 69.9705 233.617 69.9078 231.598 69.7012L231.568 56.4981C232.173 56.0037 233.485 55.9963 234.05 56.5017L234.079 67.1299L236.905 67.5099H236.909Z" fill="white"/>
<path d="M94.4212 0H64.9941V8.78366H94.4212V0Z" fill="white"/>
</g>
<defs>
<clipPath id="clip0_243_157">
<rect width="247" height="70" fill="white"/>
</clipPath>
</defs>
</svg>
